<svg width="81" height="78" viewBox="0 0 81 78" fill="none" xmlns="http://www.w3.org/2000/svg">
<path d="M59.0001 53.3031C67.8774 22.3684 58.1235 1.95111 41.731 8.12154C19.0261 2.03474 14.8194 22.5048 21.6001 53.3028M40.9212 62.2466V63.9341M45.7358 43.9862V49.7449C45.7358 50.6739 46.489 51.427 47.418 51.427V51.427C47.8095 51.427 48.0038 51.9019 47.7245 52.1763L43.7331 56.0985C42.1615 57.6428 39.6518 57.6732 38.0433 56.1673L34.0818 52.4584C33.6871 52.0889 33.9486 51.427 34.4893 51.427V51.427C35.1753 51.427 35.7314 50.8709 35.7314 50.1849V44.4864C30.4457 41.481 27.825 38.5704 26.5705 34.1251C25.0419 28.7086 25.4144 22.2333 29.6036 18.4748V18.4748C31.02 17.2218 32.2904 16.6693 35.1254 15.9111C38.6588 15.3691 41.1602 23.3037 44.3561 23.8715C49.2618 25.0655 51.3226 21.8921 52.9837 23.0352C55.3186 24.6422 54.8776 28.2668 54.5188 31.0784C53.6983 37.5067 51.5781 40.8193 45.7358 43.9862Z" stroke="#262626" stroke-width="2" stroke-linecap="round"/>
<rect x="48.5625" y="59.0591" width="10.25" height="6.625" rx="1" stroke="#262626" stroke-width="2"/>
</svg>
