<svg width="81" height="78" viewBox="0 0 81 78" fill="none" xmlns="http://www.w3.org/2000/svg">
<path d="M25.8181 27.1341V66.0658M25.8181 27.1341H57.3814M25.8181 27.1341H18.0098M25.8181 66.0658H61.9902C62.5425 66.0658 62.9902 65.6181 62.9902 65.0658V57.9275M25.8181 66.0658H19.0098C18.4575 66.0658 18.0098 65.6181 18.0098 65.0658V27.1341M62.9902 51.7689V28.1341C62.9902 27.5818 62.5425 27.1341 61.9902 27.1341H57.3814M57.3814 27.1341V13.7842C57.3814 13.0435 56.6035 12.5599 55.9371 12.8834C49.5295 15.9937 44.2058 18.2723 38.8006 20.2937M18.0098 27.1341C26.2365 24.61 32.5726 22.6227 38.8006 20.2937M18.0098 27.1341L37.2166 13.3168C37.8781 12.8409 38.8006 13.3136 38.8006 14.1285V20.2937M37.1457 38.4617H50.2329M37.1457 42.6408H50.2329M53.522 46.7099H34.4065C33.8542 46.7099 33.4065 46.2622 33.4065 45.7099V35.8324C33.4065 35.2802 33.8542 34.8324 34.4065 34.8324H53.522C54.0743 34.8324 54.522 35.2802 54.522 35.8324V45.7099C54.522 46.2622 54.0743 46.7099 53.522 46.7099Z" stroke="#262626" stroke-width="2" stroke-linecap="round"/>
</svg>
