<svg width="81" height="78" viewBox="0 0 81 78" fill="none" xmlns="http://www.w3.org/2000/svg">
<path d="M34.0848 47.7883C33.4218 47.7883 32.8843 48.3258 32.8843 48.9888C32.8843 49.6518 33.4218 50.1893 34.0848 50.1893V47.7883ZM36.8234 50.1893C37.4865 50.1893 38.024 49.6518 38.024 48.9888C38.024 48.3258 37.4865 47.7883 36.8234 47.7883V50.1893ZM40.5 14.3992L41.2453 13.458L40.5 12.8679L39.7547 13.458L40.5 14.3992ZM55.2812 26.1041H56.4818V25.5235L56.0265 25.163L55.2812 26.1041ZM55.2812 66.9964V68.1969H56.4818V66.9964H55.2812ZM25.7188 66.9964H24.5182V68.1969H25.7188V66.9964ZM25.7188 26.1041L24.9735 25.163L24.5182 25.5235V26.1041H25.7188ZM35.773 58.893C35.773 59.556 36.3105 60.0935 36.9735 60.0935C37.6365 60.0935 38.174 59.556 38.174 58.893H35.773ZM34.2724 51.5399C33.6093 51.5399 33.0719 52.0774 33.0719 52.7404C33.0719 53.4034 33.6093 53.9409 34.2724 53.9409V51.5399ZM43.9515 53.9409C44.6145 53.9409 45.152 53.4034 45.152 52.7404C45.152 52.0774 44.6145 51.5399 43.9515 51.5399V53.9409ZM36.9735 37.3589L36.6874 36.193L35.773 36.4174V37.3589H36.9735ZM34.0848 50.1893H36.8234V47.7883H34.0848V50.1893ZM39.7547 15.3403L54.536 27.0453L56.0265 25.163L41.2453 13.458L39.7547 15.3403ZM54.0807 26.1041V66.9964H56.4818V26.1041H54.0807ZM55.2812 65.7959H25.7188V68.1969H55.2812V65.7959ZM26.9193 66.9964V26.1041H24.5182V66.9964H26.9193ZM26.464 27.0453L41.2453 15.3403L39.7547 13.458L24.9735 25.163L26.464 27.0453ZM38.174 58.893V52.7404H35.773V58.893H38.174ZM36.9735 51.5399H34.2724V53.9409H36.9735V51.5399ZM36.9735 53.9409H43.9515V51.5399H36.9735V53.9409ZM38.174 52.7404V49.2139H35.773V52.7404H38.174ZM36.784 50.3994C40.4726 50.9891 43.3314 50.3223 45.2685 48.8226C47.2084 47.3207 48.0709 45.096 47.9497 42.9241C47.829 40.7602 46.7335 38.631 44.7624 37.2687C42.7757 35.8958 40.0154 35.3763 36.6874 36.193L37.2596 38.5248C40.0467 37.8409 42.0743 38.3296 43.3973 39.2439C44.7358 40.169 45.4715 41.6062 45.5524 43.0578C45.633 44.5015 45.0675 45.9417 43.7986 46.924C42.5269 47.9086 40.3961 48.5454 37.1631 48.0285L36.784 50.3994ZM35.773 37.3589V49.2139H38.174V37.3589H35.773ZM44.5769 27.0045C44.5769 29.2422 42.7629 31.0562 40.5252 31.0562V33.4572C44.0889 33.4572 46.9779 30.5683 46.9779 27.0045H44.5769ZM40.5252 31.0562C38.2875 31.0562 36.4735 29.2422 36.4735 27.0045H34.0725C34.0725 30.5683 36.9615 33.4572 40.5252 33.4572V31.0562ZM36.4735 27.0045C36.4735 24.7668 38.2875 22.9528 40.5252 22.9528V20.5518C36.9615 20.5518 34.0725 23.4408 34.0725 27.0045H36.4735ZM40.5252 22.9528C42.7629 22.9528 44.5769 24.7668 44.5769 27.0045H46.9779C46.9779 23.4408 44.0889 20.5518 40.5252 20.5518V22.9528ZM40.6795 28.5578C42.6947 28.4297 44.6369 27.7544 46.2971 26.6047L44.9301 24.6308C43.6289 25.5319 42.1066 26.0612 40.5271 26.1616L40.6795 28.5578ZM46.2971 26.6047C47.9572 25.455 49.2724 23.8744 50.1012 22.033L47.9117 21.0476C47.2621 22.4909 46.2313 23.7297 44.9301 24.6308L46.2971 26.6047ZM50.1012 22.033C50.9299 20.1915 51.2409 18.1589 51.0006 16.1539L48.6166 16.4397C48.805 18.0112 48.5612 19.6043 47.9117 21.0476L50.1012 22.033ZM51.0006 16.1539C50.7602 14.1489 49.9777 12.2474 48.7373 10.654L46.8427 12.1289C47.8149 13.3778 48.4282 14.8682 48.6166 16.4397L51.0006 16.1539ZM48.7373 10.654C47.4968 9.06054 45.8453 7.83552 43.9605 7.11073L43.0987 9.35175C44.576 9.91984 45.8704 10.88 46.8427 12.1289L48.7373 10.654ZM43.9605 7.11073C42.0757 6.38593 40.029 6.1888 38.0405 6.54055L38.4587 8.90486C40.0172 8.62916 41.6215 8.78367 43.0987 9.35175L43.9605 7.11073ZM38.0405 6.54055C36.052 6.8923 34.1971 7.7796 32.6753 9.10699L34.2535 10.9164C35.4463 9.87601 36.9002 9.18055 38.4587 8.90486L38.0405 6.54055ZM32.6753 9.10699C31.1535 10.4344 30.0225 12.1516 29.4039 14.0739L31.6895 14.8094C32.1743 13.3027 33.0608 11.9568 34.2535 10.9164L32.6753 9.10699Z" fill="#262626"/>
</svg>
