<svg width="81" height="78" viewBox="0 0 81 78" fill="none" xmlns="http://www.w3.org/2000/svg">
<path d="M36.7466 69.6419L33.9678 60.1735C33.783 59.5439 33.1794 59.1322 32.5258 59.1902L24.7119 59.8825C24.6305 59.8897 24.5468 59.8897 24.4655 59.8816C21.2227 59.5597 20.6211 58.2644 20.6902 54.9617V52.2187C20.6902 51.9868 20.6315 51.7586 20.5198 51.5554L19.388 49.446M19.388 49.446L18.4129 46.4233C18.3956 46.3696 18.3815 46.315 18.3725 46.2592C18.3503 46.1202 18.3129 45.8402 18.3418 45.6782L18.7162 43.5816C18.8022 43.1004 18.6264 42.6098 18.2545 42.2926L15.9578 40.3336C15.3973 39.8555 15.3126 39.0209 15.7657 38.44L19.347 33.8487C19.4011 33.7792 19.4485 33.7048 19.4884 33.6263L22.6424 27.4272C22.7165 27.2816 22.7642 27.1203 22.7841 26.9582C24.6993 11.3695 35.6235 5.59248 53.545 10.0742M19.388 49.446C19.3457 49.3692 19.4149 49.5294 19.388 49.446ZM53.545 10.0742C67.2761 17.8027 69.0505 35.2922 58.9961 50.2595C52.4144 58.7061 44.1539 56.4508 44.0492 47.3071C44.0409 46.583 44.658 46.0355 45.3722 45.9155C49.7591 45.1784 48.4851 40.696 41.1046 42.8047M53.545 10.0742C53.6598 10.1029 53.4418 10.0161 53.545 10.0742ZM34.2806 38.6628L36.8611 36.3117M34.2806 28.226H30.6679M37.3199 20.5992L34.7967 18.1908M45.004 18.4775V14.8074M52.3441 20.5992L54.81 18.1908M55.3834 28.226H59.1681M52.7456 36.3117L55.0967 38.6628M42.3338 39.1215H46.6526C47.2153 39.1215 47.7214 38.7789 47.9304 38.2564L49.486 34.3674C49.518 34.2875 49.5612 34.205 49.6071 34.1321C60.0983 17.4697 29.4782 16.5151 39.5609 34.441C39.594 34.4998 39.6257 34.5656 39.6501 34.6285L41.0505 38.2425C41.2558 38.7723 41.7656 39.1215 42.3338 39.1215Z" stroke="#262626" stroke-width="2" stroke-linecap="round"/>
</svg>
