<svg width="81" height="78" viewBox="0 0 81 78" fill="none" xmlns="http://www.w3.org/2000/svg">
<path d="M22.4566 12.0995L21.6276 12.6587V12.6587L22.4566 12.0995ZM41.8981 40.9227L42.8951 40.8459L42.8748 40.5825L42.7271 40.3635L41.8981 40.9227ZM36.3621 44.6568L35.5331 45.216L35.6808 45.435L35.9174 45.5524L36.3621 44.6568ZM16.9206 15.8336L16.0916 16.3928L16.9206 15.8336ZM17.0773 15.0275L17.6365 15.8565H17.6365L17.0773 15.0275ZM21.6505 11.9428L21.0913 11.1138H21.0913L21.6505 11.9428ZM42.3391 46.6444L43.3362 46.5675V46.5675L42.3391 46.6444ZM41.5019 47.2091L41.0572 48.1047L41.5019 47.2091ZM23.4771 45.797L24.251 45.1637L22.4771 42.9955V45.797H23.4771ZM23.4771 61.2833H22.4771V62.2833H23.4771V61.2833ZM36.1477 61.2833V62.2833H38.2579L36.9216 60.6501L36.1477 61.2833ZM17.5825 29.3855L18.3564 28.7522L16.5825 26.5841V29.3855H17.5825ZM17.5825 67.4185H16.5825V68.4185H17.5825V67.4185ZM48.7002 67.4185V68.4185H50.8105L49.4742 66.7853L48.7002 67.4185ZM44.8147 25.5466L45.1237 24.5955L44.8147 25.5466ZM41.8393 20.0186L40.8883 19.7096H40.8883L41.8393 20.0186ZM64.722 27.4537L65.6731 27.7627L64.722 27.4537ZM59.0657 30.177L58.7566 31.128L59.0657 30.177ZM62.3295 20.1318L62.6386 19.1807L62.3295 20.1318ZM65.3049 25.6597L64.3538 25.3507L65.3049 25.6597ZM48.0786 15.5014L47.7696 16.4524L48.0786 15.5014ZM42.4222 18.2247L43.3733 18.5337H43.3733L42.4222 18.2247ZM34.5391 24.5723C34.3613 25.0952 34.6411 25.6632 35.1639 25.841C35.6868 26.0188 36.2548 25.7391 36.4326 25.2162L34.5391 24.5723ZM42.5806 7.11693L42.2647 8.06569L42.5806 7.11693ZM41.3179 7.74375L40.3711 7.42181V7.42181L41.3179 7.74375ZM72.0234 16.9225L71.7074 17.8713L72.0234 16.9225ZM72.6516 18.2008L71.7074 17.8713L72.6516 18.2008ZM55.2828 67.972L56.227 68.3015L55.2828 67.972ZM54.0423 68.5976L53.7459 69.5527H53.7459L54.0423 68.5976ZM21.6276 12.6587L41.0691 41.4819L42.7271 40.3635L23.2856 11.5403L21.6276 12.6587ZM41.3389 40.0937L35.8029 43.8278L36.9213 45.4858L42.4573 41.7518L41.3389 40.0937ZM37.1912 44.0976L17.7497 15.2744L16.0916 16.3928L35.5331 45.216L37.1912 44.0976ZM17.6365 15.8565L22.2097 12.7719L21.0913 11.1138L16.5181 14.1985L17.6365 15.8565ZM40.9011 40.9996L41.3421 46.7212L43.3362 46.5675L42.8951 40.8459L40.9011 40.9996ZM41.9467 46.3134L36.8069 43.7611L35.9174 45.5524L41.0572 48.1047L41.9467 46.3134ZM41.3421 46.7212C41.3171 46.3967 41.6552 46.1687 41.9467 46.3134L41.0572 48.1047C42.156 48.6504 43.4305 47.7907 43.3362 46.5675L41.3421 46.7212ZM17.7497 15.2744C17.8792 15.4664 17.8285 15.727 17.6365 15.8565L16.5181 14.1985C15.7944 14.6866 15.6034 15.669 16.0916 16.3928L17.7497 15.2744ZM23.2856 11.5403C22.7975 10.8166 21.815 10.6256 21.0913 11.1138L22.2097 12.7719C22.0177 12.9014 21.7571 12.8507 21.6276 12.6587L23.2856 11.5403ZM22.4771 45.797V61.2833H24.4771V45.797H22.4771ZM23.4771 62.2833H36.1477V60.2833H23.4771V62.2833ZM36.9216 60.6501L24.251 45.1637L22.7031 46.4302L35.3737 61.9166L36.9216 60.6501ZM16.5825 29.3855V67.4185H18.5825V29.3855H16.5825ZM17.5825 68.4185H48.7002V66.4185H17.5825V68.4185ZM49.4742 66.7853L18.3564 28.7522L16.8085 30.0187L47.9263 68.0517L49.4742 66.7853ZM42.2647 8.06569L71.7074 17.8713L72.3394 15.9738L42.8966 6.16816L42.2647 8.06569ZM71.7074 17.8713L54.3386 67.6425L56.227 68.3015L73.5958 18.5303L71.7074 17.8713ZM54.3386 67.6425L48.375 65.7918L47.7822 67.702L53.7459 69.5527L54.3386 67.6425ZM47.7696 16.4524L62.0205 21.0829L62.6386 19.1807L48.3876 14.5503L47.7696 16.4524ZM64.3538 25.3507L63.7709 27.1447L65.6731 27.7627L66.2559 25.9687L64.3538 25.3507ZM59.3747 29.2259L45.1237 24.5955L44.5057 26.4976L58.7566 31.128L59.3747 29.2259ZM42.7904 20.3277L43.3733 18.5337L41.4712 17.9157L40.8883 19.7096L42.7904 20.3277ZM45.1237 24.5955C43.2245 23.9784 42.2337 22.041 42.7904 20.3277L40.8883 19.7096C39.9643 22.5534 41.6377 25.5658 44.5057 26.4976L45.1237 24.5955ZM63.7709 27.1447C63.2143 28.858 61.2739 29.843 59.3747 29.2259L58.7566 31.128C61.6246 32.0599 64.7491 30.6064 65.6731 27.7627L63.7709 27.1447ZM62.0205 21.0829C63.9197 21.6999 64.9105 23.6374 64.3538 25.3507L66.2559 25.9687C67.1799 23.125 65.5065 20.1126 62.6386 19.1807L62.0205 21.0829ZM48.3876 14.5503C45.5196 13.6185 42.3952 15.072 41.4712 17.9157L43.3733 18.5337C43.93 16.8204 45.8704 15.8354 47.7696 16.4524L48.3876 14.5503ZM36.4326 25.2162L42.2647 8.0657L40.3711 7.42181L34.5391 24.5723L36.4326 25.2162ZM42.8966 6.16816C41.8533 5.8207 40.7252 6.3807 40.3711 7.42181L42.2647 8.0657L42.2647 8.06569L42.8966 6.16816ZM71.7074 17.8713V17.8713L73.5958 18.5303C73.9634 17.4769 73.398 16.3263 72.3394 15.9738L71.7074 17.8713ZM54.3386 67.6425L54.3386 67.6425L53.7459 69.5527C54.7749 69.872 55.872 69.3188 56.227 68.3015L54.3386 67.6425Z" fill="#262626"/>
</svg>
