<svg width="81" height="78" viewBox="0 0 81 78" fill="none" xmlns="http://www.w3.org/2000/svg">
<path d="M55.6156 57.4966V62.8274C55.6156 62.9899 55.4839 63.1216 55.3214 63.1216H23.2523C23.0899 63.1216 22.9581 62.9899 22.9581 62.8274V52.8822M22.9581 49.3915V26.7407M22.9581 26.7407V19.2625C22.9581 19.2319 22.9534 19.2012 22.9437 19.1721C22.1833 16.8823 19.9597 15.5954 17.7548 15.5487M22.9581 26.7407H13.0129C12.8505 26.7407 12.7188 26.609 12.7188 26.4465V19.2572C12.7188 19.2301 12.7226 19.2027 12.7302 19.1766C13.4685 16.6389 15.6027 15.5031 17.7548 15.5487M17.7548 15.5487H51.1644C51.1841 15.5487 51.2042 15.5507 51.2235 15.5547C53.8909 16.1014 55.0331 16.9235 55.6117 20.4333C55.6142 20.449 55.6156 20.4654 55.6156 20.4813V38.2212M46.0615 47.7138L48.2351 51.0092C48.3474 51.1796 48.5949 51.1865 48.7167 51.0227L52.9653 45.3091M57.5181 56.2027L58.9897 54.7311M57.5181 56.2027C57.4081 56.3126 57.4151 56.0862 57.5181 56.2027ZM57.5181 56.2027L66.063 66.0591C67.688 67.4341 70.7505 65.0591 68.938 63.1216L58.9897 54.7311M58.9897 54.7311C59.0991 54.6216 58.8731 54.6292 58.9897 54.7311ZM60.3475 47.6461C60.3475 53.8367 55.329 58.8552 49.1384 58.8552C42.9478 58.8552 37.9294 53.8367 37.9294 47.6461C37.9294 41.4555 42.9478 36.4371 49.1384 36.4371C55.329 36.4371 60.3475 41.4555 60.3475 47.6461Z" stroke="#262626" stroke-width="2" stroke-linecap="round"/>
<path d="M29.9824 25.6548H48.8759" stroke="#262626" stroke-width="2" stroke-linecap="round"/>
<path d="M29.9824 33.1548H48.8759" stroke="#262626" stroke-width="2" stroke-linecap="round"/>
<path d="M29.9824 40.6548H36.001" stroke="#262626" stroke-width="2" stroke-linecap="round"/>
</svg>
