<svg width="81" height="78" viewBox="0 0 81 78" fill="none" xmlns="http://www.w3.org/2000/svg">
<path d="M22.1713 25.9577V25.9577C22.4457 24.9728 21.8747 23.9509 20.892 23.6685L17.1363 22.5893C15.5459 22.1323 13.8857 23.0494 13.4259 24.639L8.31504 42.3081C7.85887 43.8851 8.75501 45.5359 10.326 46.0125L14.5582 47.2964C15.401 47.5521 16.2891 47.0644 16.5255 46.216V46.216M22.1713 25.9577L27.0166 27.6582M22.1713 25.9577L16.5255 46.216M27.0166 27.6582L37.2302 22.2872C37.8738 21.9488 38.6184 21.8556 39.3256 22.0251L59.2028 26.7883M27.0166 27.6582C23.5083 29.1753 24.0927 33.4827 28.8609 32.8248C29.0467 32.7992 29.2314 32.7478 29.407 32.6819L35.5928 30.3622C35.9296 30.2359 36.2864 30.1712 36.6462 30.1712H42.7961C43.1 30.1712 43.4039 30.2168 43.6927 30.3118C50.5348 32.5647 54.6517 36.6056 62.0058 46.216M59.2028 26.7883V26.7883C58.882 25.6653 59.5282 24.4941 60.6492 24.1666L64.2975 23.1008C65.9066 22.6307 67.5886 23.5703 68.0319 25.1869L72.7534 42.4019C73.176 43.9431 72.3164 45.5451 70.7984 46.0449L67.667 47.076C66.5233 47.4526 65.2937 46.8144 64.9433 45.6624V45.6624M59.2028 26.7883L64.9433 45.6624M62.0058 46.216L64.9433 45.6624M62.0058 46.216C60.8846 49.6274 59.9685 51.1151 56.6898 51.3388M56.6898 51.3388C55.8656 54.3499 54.784 55.3648 51.3737 55.5916M56.6898 51.3388L53.9375 48.6841M51.3737 55.5916C49.9011 58.3626 48.8025 59.6574 46.1543 59.7478M51.3737 55.5916L49.0625 52.8852M46.1543 59.7478L43.7226 61.6121C43.4136 61.849 43.0627 62.0301 42.6816 62.1101C40.8783 62.4887 39.8428 62.0804 38.2286 60.811M46.1543 59.7478L44.1875 57.428M38.2286 60.811L37.3594 58.7828C36.9932 57.9284 36.2517 57.292 35.3516 57.0597L35.2783 57.0408C34.3396 56.7986 33.5759 56.1177 33.2279 55.2129L32.9377 54.4584C32.5619 53.4814 31.7041 52.771 30.6743 52.5837L30.2911 52.5141C29.5527 52.3798 28.8913 51.9736 28.4377 51.3756L27.9169 50.6891C27.3497 49.9415 26.4653 49.5023 25.5269 49.5023H24.7641C24.1539 49.5023 23.5582 49.3162 23.0564 48.9689L22.0844 48.2959C21.5827 47.9486 20.987 47.7625 20.3768 47.7625H19.1875M38.2286 60.811C36.62 62.756 35.2209 62.7064 32.4005 60.891C31.849 60.536 31.2001 60.38 30.55 60.2926C29.3887 60.1364 28.5778 59.5354 27.5921 58.2343C27.218 57.7405 26.6458 57.428 26.0263 57.428V57.428C25.6634 57.428 25.3082 57.3225 25.0042 57.1242L24.166 56.5776C23.5726 56.1905 23.1753 55.5881 22.872 54.9478C22.5338 54.2337 22.0714 53.8148 21.147 53.5615C20.8758 53.4872 20.6039 53.4019 20.3598 53.2622C17.9844 51.9033 18.1283 50.4915 19.1875 47.7625M19.1875 47.7625L16.5255 46.216" stroke="#262626" stroke-width="2" stroke-linecap="round"/>
</svg>
