<svg width="81" height="78" viewBox="0 0 81 78" fill="none" xmlns="http://www.w3.org/2000/svg">
<path d="M25.06 28.8616C25.06 30.1802 25.5353 31.2996 26.486 32.2196C27.4367 33.1396 28.5713 33.5996 29.89 33.5996C31.2393 33.5996 32.374 33.1549 33.294 32.2656C34.214 31.3456 34.674 30.2109 34.674 28.8616C34.674 27.5429 34.1987 26.4236 33.248 25.5036C32.328 24.5529 31.2087 24.0776 29.89 24.0776C28.5713 24.0776 27.4367 24.5529 26.486 25.5036C25.5353 26.4236 25.06 27.5429 25.06 28.8616ZM38.032 28.8616C38.032 31.0389 37.2193 32.9249 35.594 34.5196C33.9993 36.1142 32.1133 36.9116 29.936 36.9116C27.6973 36.9116 25.796 36.1296 24.232 34.5656C22.6987 33.0016 21.932 31.1002 21.932 28.8616C21.932 26.6229 22.6987 24.7369 24.232 23.2036C25.796 21.6396 27.6973 20.8576 29.936 20.8576C32.144 20.8576 34.0453 21.6396 35.64 23.2036C37.2347 24.7676 38.032 26.6536 38.032 28.8616ZM30.212 55.3576L47.922 20.8576H50.728L33.064 55.3576H30.212ZM46.22 47.2616C46.22 48.5802 46.68 49.7149 47.6 50.6656C48.5507 51.5856 49.6853 52.0456 51.004 52.0456C52.3227 52.0456 53.442 51.5856 54.362 50.6656C55.282 49.7149 55.742 48.5802 55.742 47.2616C55.742 45.9122 55.282 44.7929 54.362 43.9036C53.4727 42.9836 52.3533 42.5236 51.004 42.5236C49.624 42.5236 48.474 42.9682 47.554 43.8576C46.6647 44.7469 46.22 45.8816 46.22 47.2616ZM59.054 47.2616C59.054 49.5002 58.272 51.4016 56.708 52.9656C55.1747 54.4989 53.2887 55.2656 51.05 55.2656C48.842 55.2656 46.9407 54.4836 45.346 52.9196C43.7513 51.3556 42.954 49.4696 42.954 47.2616C42.954 45.0229 43.736 43.1216 45.3 41.5576C46.8947 39.9936 48.8113 39.2116 51.05 39.2116C53.2887 39.2116 55.1747 39.9936 56.708 41.5576C58.272 43.1216 59.054 45.0229 59.054 47.2616Z" fill="#262626"/>
</svg>
