<svg width="100" height="134" viewBox="0 0 100 134" fill="none" xmlns="http://www.w3.org/2000/svg">
<path d="M40.7181 72.2023H52.2823C56.1005 72.2023 59.1958 69.1071 59.1958 65.2889C59.1958 61.4707 56.1005 58.3755 52.2823 58.3755H40.7181C36.8999 58.3755 33.8047 61.4707 33.8047 65.2889C33.8047 69.1071 36.8999 72.2023 40.7181 72.2023Z" stroke="#262626" stroke-width="2"/>
<path d="M50.9231 132.184H5.62488C3.34246 132.184 1.49219 130.628 1.49219 128.707V36.9542C1.49219 35.0337 3.34246 33.4768 5.62488 33.4768H10.5325M18.8624 33.4768H50.9231M59.0916 33.4768H64.5157C66.7982 33.4768 68.6484 35.0337 68.6484 36.9542V101.875M14.8203 38.2505V7.75049H55.0703V38.2505" stroke="#262626" stroke-width="2" stroke-linejoin="round"/>
<path d="M77.7598 28.6255L83.4897 11.4086C87.3813 -4.80818 103.337 0.331264 96.9521 15.7763" stroke="#262626" stroke-width="2" stroke-linecap="round"/>
<path d="M85.9572 51.2719L81.5904 49.5518C79.792 48.8434 77.7597 49.727 77.0512 51.5255V51.5255C76.3428 53.324 77.2264 55.3563 79.0249 56.0647L83.3917 57.7848" stroke="#262626" stroke-width="1.01253"/>
<path d="M61.6528 33.4817L63.4205 22.1291C73.362 33.2241 80.4042 35.0934 95.2989 30.7934L68.8223 91.6255" stroke="#262626" stroke-width="2"/>
<path d="M69.2871 112.882H74.1191C75.7145 112.882 77.0078 111.589 77.0078 109.993C77.0078 108.398 75.7145 107.104 74.1191 107.104H69.2871C67.6917 107.104 66.3984 108.398 66.3984 109.993C66.3984 111.589 67.6917 112.882 69.2871 112.882Z" stroke="#262626" stroke-width="0.835678"/>
<rect x="48.7656" y="102.125" width="32.9387" height="30.559" rx="3" stroke="#262626" stroke-width="2"/>
</svg>
