<svg width="24" height="24" viewBox="0 0 24 24" fill="none" xmlns="http://www.w3.org/2000/svg">
<path d="M21.4286 1.71429H19.1229V0.857143C19.1229 0.629814 19.0326 0.411797 18.8718 0.251051C18.7111 0.0903058 18.493 0 18.2657 0C18.0384 0 17.8204 0.0903058 17.6596 0.251051C17.4989 0.411797 17.4086 0.629814 17.4086 0.857143V1.71429H6.58286V0.857143C6.58286 0.629814 6.49255 0.411797 6.33181 0.251051C6.17106 0.0903058 5.95304 0 5.72571 0C5.49839 0 5.28037 0.0903058 5.11962 0.251051C4.95888 0.411797 4.86857 0.629814 4.86857 0.857143V1.71429H2.57143C1.88944 1.71429 1.23539 1.9852 0.753154 2.46744C0.270918 2.94968 0 3.60373 0 4.28571V6H24V4.28571C23.998 3.60435 23.7264 2.95148 23.2446 2.46969C22.7628 1.98789 22.1099 1.71632 21.4286 1.71429Z" fill="#262626"/>
<path d="M1.71429 7.71436H0V21.4286C0 22.1106 0.270918 22.7647 0.753154 23.2469C1.23539 23.7292 1.88944 24.0001 2.57143 24.0001H21.4286C22.1099 23.998 22.7628 23.7265 23.2446 23.2447C23.7264 22.7629 23.998 22.11 24 21.4286V7.71436H1.71429ZM18 9.85721C18 9.74355 18.0452 9.63454 18.1255 9.55417C18.2059 9.47379 18.3149 9.42864 18.4286 9.42864H20.1429C20.2565 9.42864 20.3655 9.47379 20.4459 9.55417C20.5263 9.63454 20.5714 9.74355 20.5714 9.85721V11.5715C20.5714 11.6852 20.5263 11.7942 20.4459 11.8745C20.3655 11.9549 20.2565 12.0001 20.1429 12.0001H18.4286C18.3149 12.0001 18.2059 11.9549 18.1255 11.8745C18.0452 11.7942 18 11.6852 18 11.5715V9.85721ZM18 14.1429C18 14.0293 18.0452 13.9203 18.1255 13.8399C18.2059 13.7595 18.3149 13.7144 18.4286 13.7144H20.1429C20.2565 13.7144 20.3655 13.7595 20.4459 13.8399C20.5263 13.9203 20.5714 14.0293 20.5714 14.1429V15.8572C20.5714 15.9709 20.5263 16.0799 20.4459 16.1603C20.3655 16.2406 20.2565 16.2858 20.1429 16.2858H18.4286C18.3149 16.2858 18.2059 16.2406 18.1255 16.1603C18.0452 16.0799 18 15.9709 18 15.8572V14.1429ZM17.6914 18.8401C17.7313 18.7999 17.7787 18.768 17.8309 18.7463C17.8831 18.7245 17.9391 18.7133 17.9957 18.7133C18.0523 18.7133 18.1083 18.7245 18.1605 18.7463C18.2128 18.768 18.2602 18.7999 18.3 18.8401L18.8571 19.3972L20.2629 17.9829C20.3436 17.9022 20.453 17.8569 20.5671 17.8569C20.6813 17.8569 20.7907 17.9022 20.8714 17.9829C20.9521 18.0636 20.9975 18.1731 20.9975 18.2872C20.9975 18.4013 20.9521 18.5108 20.8714 18.5915L19.1571 20.3058C19.0746 20.3829 18.9658 20.4258 18.8529 20.4258C18.7399 20.4258 18.6311 20.3829 18.5486 20.3058L17.6914 19.4486C17.613 19.3668 17.5691 19.2578 17.5691 19.1444C17.5691 19.031 17.613 18.9219 17.6914 18.8401ZM13.14 9.85721C13.14 9.74355 13.1852 9.63454 13.2655 9.55417C13.3459 9.47379 13.4549 9.42864 13.5686 9.42864H15.2829C15.3965 9.42864 15.5055 9.47379 15.5859 9.55417C15.6663 9.63454 15.7114 9.74355 15.7114 9.85721V11.5715C15.7114 11.6852 15.6663 11.7942 15.5859 11.8745C15.5055 11.9549 15.3965 12.0001 15.2829 12.0001H13.5686C13.4549 12.0001 13.3459 11.9549 13.2655 11.8745C13.1852 11.7942 13.14 11.6852 13.14 11.5715V9.85721ZM13.14 14.1429C13.14 14.0293 13.1852 13.9203 13.2655 13.8399C13.3459 13.7595 13.4549 13.7144 13.5686 13.7144H15.2829C15.3965 13.7144 15.5055 13.7595 15.5859 13.8399C15.6663 13.9203 15.7114 14.0293 15.7114 14.1429V15.8572C15.7114 15.9709 15.6663 16.0799 15.5859 16.1603C15.5055 16.2406 15.3965 16.2858 15.2829 16.2858H13.5686C13.4549 16.2858 13.3459 16.2406 13.2655 16.1603C13.1852 16.0799 13.14 15.9709 13.14 15.8572V14.1429ZM13.14 18.4286C13.14 18.315 13.1852 18.206 13.2655 18.1256C13.3459 18.0452 13.4549 18.0001 13.5686 18.0001H15.2829C15.3965 18.0001 15.5055 18.0452 15.5859 18.1256C15.6663 18.206 15.7114 18.315 15.7114 18.4286V20.1429C15.7114 20.2566 15.6663 20.3656 15.5859 20.446C15.5055 20.5263 15.3965 20.5715 15.2829 20.5715H13.5686C13.4549 20.5715 13.3459 20.5263 13.2655 20.446C13.1852 20.3656 13.14 20.2566 13.14 20.1429V18.4286ZM8.28 9.85721C8.28 9.74355 8.32515 9.63454 8.40553 9.55417C8.4859 9.47379 8.59491 9.42864 8.70857 9.42864H10.4229C10.5365 9.42864 10.6455 9.47379 10.7259 9.55417C10.8063 9.63454 10.8514 9.74355 10.8514 9.85721V11.5715C10.8514 11.6852 10.8063 11.7942 10.7259 11.8745C10.6455 11.9549 10.5365 12.0001 10.4229 12.0001H8.70857C8.59491 12.0001 8.4859 11.9549 8.40553 11.8745C8.32515 11.7942 8.28 11.6852 8.28 11.5715V9.85721ZM8.28 14.1429C8.28 14.0293 8.32515 13.9203 8.40553 13.8399C8.4859 13.7595 8.59491 13.7144 8.70857 13.7144H10.4229C10.5365 13.7144 10.6455 13.7595 10.7259 13.8399C10.8063 13.9203 10.8514 14.0293 10.8514 14.1429V15.8572C10.8514 15.9709 10.8063 16.0799 10.7259 16.1603C10.6455 16.2406 10.5365 16.2858 10.4229 16.2858H8.70857C8.59491 16.2858 8.4859 16.2406 8.40553 16.1603C8.32515 16.0799 8.28 15.9709 8.28 15.8572V14.1429ZM8.28 18.4286C8.28 18.315 8.32515 18.206 8.40553 18.1256C8.4859 18.0452 8.59491 18.0001 8.70857 18.0001H10.4229C10.5365 18.0001 10.6455 18.0452 10.7259 18.1256C10.8063 18.206 10.8514 18.315 10.8514 18.4286V20.1429C10.8514 20.2566 10.8063 20.3656 10.7259 20.446C10.6455 20.5263 10.5365 20.5715 10.4229 20.5715H8.70857C8.59491 20.5715 8.4859 20.5263 8.40553 20.446C8.32515 20.3656 8.28 20.2566 8.28 20.1429V18.4286ZM3.42857 9.85721C3.42857 9.74355 3.47372 9.63454 3.5541 9.55417C3.63447 9.47379 3.74348 9.42864 3.85714 9.42864H5.57143C5.68509 9.42864 5.7941 9.47379 5.87447 9.55417C5.95485 9.63454 6 9.74355 6 9.85721V11.5715C6 11.6852 5.95485 11.7942 5.87447 11.8745C5.7941 11.9549 5.68509 12.0001 5.57143 12.0001H3.85714C3.74348 12.0001 3.63447 11.9549 3.5541 11.8745C3.47372 11.7942 3.42857 11.6852 3.42857 11.5715V9.85721ZM3.42857 14.1429C3.42857 14.0293 3.47372 13.9203 3.5541 13.8399C3.63447 13.7595 3.74348 13.7144 3.85714 13.7144H5.57143C5.68509 13.7144 5.7941 13.7595 5.87447 13.8399C5.95485 13.9203 6 14.0293 6 14.1429V15.8572C6 15.9709 5.95485 16.0799 5.87447 16.1603C5.7941 16.2406 5.68509 16.2858 5.57143 16.2858H3.85714C3.74348 16.2858 3.63447 16.2406 3.5541 16.1603C3.47372 16.0799 3.42857 15.9709 3.42857 15.8572V14.1429ZM3.42857 18.4286C3.42857 18.315 3.47372 18.206 3.5541 18.1256C3.63447 18.0452 3.74348 18.0001 3.85714 18.0001H5.57143C5.68509 18.0001 5.7941 18.0452 5.87447 18.1256C5.95485 18.206 6 18.315 6 18.4286V20.1429C6 20.2566 5.95485 20.3656 5.87447 20.446C5.7941 20.5263 5.68509 20.5715 5.57143 20.5715H3.85714C3.74348 20.5715 3.63447 20.5263 3.5541 20.446C3.47372 20.3656 3.42857 20.2566 3.42857 20.1429V18.4286Z" fill="#262626"/>
</svg>
