<svg width="46" height="45" viewBox="0 0 46 45" fill="none" xmlns="http://www.w3.org/2000/svg">
<g clip-path="url(#clip0_2111_19002)">
<path d="M22.5703 0C10.1448 0 0.0703125 10.0745 0.0703125 22.5C0.0703125 34.9253 10.1448 44.9999 22.5703 44.9999C34.9958 44.9999 45.07 34.9252 45.07 22.5C45.0701 10.0745 34.9958 0 22.5703 0ZM34.4517 32.8299L32.6502 34.6318C32.3286 34.953 31.3868 35.1534 31.3565 35.1534C25.6573 35.2031 20.1698 32.9645 16.1379 28.9322C12.095 24.887 9.85375 19.3799 9.91394 13.6615C9.91394 13.6589 10.1202 12.7441 10.4416 12.4258L12.243 10.6241C12.9022 9.96178 14.1685 9.6625 15.0556 9.95928L15.4345 10.0857C16.319 10.3822 17.2477 11.3602 17.492 12.2612L18.3982 15.5871C18.6426 16.4907 18.313 17.7762 17.654 18.4354L16.4511 19.6385C17.6321 24.0105 21.0625 27.4417 25.4354 28.6255L26.6378 27.4222C27.3001 26.7599 28.5851 26.4306 29.4867 26.6746L32.8122 27.584C33.7134 27.8316 34.6912 28.7544 34.9876 29.6386L35.114 30.0231C35.4078 30.9076 35.1109 32.1737 34.4517 32.8299Z" fill="#ffffff"/>
</g>
<defs>
<clipPath id="clip0_2111_19002">
<rect width="45" height="44.9999" fill="#37584D" transform="translate(0.0703125)"/>
</clipPath>
</defs>
</svg>
