<svg width="92" height="93" viewBox="0 0 92 93" fill="none" xmlns="http://www.w3.org/2000/svg">
<path d="M21.3915 44.4304L52.8508 15.1407C55.629 12.5541 59.9625 12.6532 62.6197 15.364L77.881 30.9337C80.5681 33.675 80.5461 38.0691 77.8318 40.7834L72.425 46.1902M37.7323 15.5198V8.19018C37.7323 4.32419 34.5983 1.19019 30.7323 1.19019H9.28534C5.41935 1.19019 2.28534 4.32419 2.28534 8.19019V52.4751M54.3244 72.4611V72.4611C54.3244 76.2793 57.4197 79.3745 61.2379 79.3745H72.8021C76.6203 79.3745 79.7155 76.2793 79.7155 72.4611V72.4611C79.7155 68.643 76.6203 65.5477 72.8021 65.5477H61.2379C57.4197 65.5477 54.3244 68.643 54.3244 72.4611ZM12.5126 54.6592C1.33343 60.9537 -4.71545 80.9008 12.4107 90.4404C13.3388 90.9574 14.4017 91.1902 15.464 91.1902H83.2742C87.1402 91.1902 90.2742 88.0562 90.2742 84.1902V60.9835C90.2742 57.1175 87.1402 53.9835 83.2742 53.9835H15.3489C14.3606 53.9835 13.3738 54.1743 12.5126 54.6592Z" stroke="#262626" stroke-width="2"/>
</svg>
