<svg width="16" height="16" viewBox="0 0 16 16" fill="none" xmlns="http://www.w3.org/2000/svg">
<path d="M12.8688 10.3211C13.8123 10.8847 14.6857 11.4494 15.4611 12.0169C15.9601 12.382 16.1472 13.0515 15.8746 13.6065C15.3187 14.7381 14.3563 15.5561 12.8907 15.8793C11.6994 16.1421 10.4563 15.9629 9.3416 15.4672C7.52231 14.6582 5.73863 13.4448 4.14691 11.8531C2.5552 10.2614 1.34176 8.47769 0.532795 6.6584C0.0371161 5.54367 -0.142065 4.30061 0.12069 3.10928C0.443926 1.64372 1.2619 0.681316 2.39348 0.125433C2.94849 -0.14721 3.61795 0.0398513 3.98313 0.538859C4.55061 1.31429 5.11531 2.18767 5.67886 3.13121C5.97415 3.6256 5.90832 4.26319 5.50687 4.67605C5.15248 5.04051 4.7812 5.38838 4.39345 5.7195C3.92692 6.11791 3.85731 6.80918 4.20905 7.31183C4.80027 8.15671 5.4836 8.97386 6.25487 9.74513C7.02614 10.5164 7.84329 11.1997 8.68817 11.791C9.19082 12.1427 9.8821 12.0731 10.2805 11.6065C10.6116 11.2188 10.9595 10.8475 11.3239 10.4931C11.7368 10.0917 12.3744 10.0258 12.8688 10.3211Z" fill="white"/>
</svg>
