<svg width="46" height="47" viewBox="0 0 46 47" fill="none" xmlns="http://www.w3.org/2000/svg">
<g clip-path="url(#clip0_2110_18095)">
<circle cx="22.875" cy="23.7881" r="22.875" fill="#53A1D2"/>
<path d="M13.5581 26.7563L29.3059 17.0585L17.2504 28.7581L20.7156 31.9173L26.9531 37.6037C28.2008 38.7412 30.2126 38.0491 30.4966 36.3848L34.5453 12.6506C34.738 11.5212 33.5855 10.6385 32.5453 11.1188L6.41445 23.1852C5.8247 23.4575 5.87802 24.3126 6.49703 24.5096L13.5581 26.7563Z" fill="#C2D3E8"/>
<path d="M13.5581 26.7563L29.3059 17.0585L17.2504 28.7581L20.7156 31.9173L26.9531 37.6037C28.2008 38.7412 30.2126 38.0491 30.4966 36.3848L34.5453 12.6506C34.738 11.5212 33.5855 10.6385 32.5453 11.1188L6.41445 23.1852C5.8247 23.4575 5.87802 24.3126 6.49703 24.5096L13.5581 26.7563Z" fill="#F7F7F7"/>
<path d="M29.3059 17.0585L13.5581 26.7563L16.7165 35.6979L17.2504 28.7581L29.3059 17.0585Z" fill="#C2D3E8"/>
<path d="M29.3059 17.0585L13.5581 26.7563L16.7165 35.6979L17.2504 28.7581L29.3059 17.0585Z" fill="#C7D6E7"/>
<path d="M17.2504 28.7581L16.7165 35.6979L20.7156 31.9173L17.2504 28.7581Z" fill="#C2D3E8"/>
<path d="M17.2504 28.7581L16.7165 35.6979L20.7156 31.9173L17.2504 28.7581Z" fill="#ABC9D4"/>
</g>
<defs>
<clipPath id="clip0_2110_18095">
<rect width="45.75" height="45.75" fill="white" transform="translate(0 0.913086)"/>
</clipPath>
</defs>
</svg>
