<svg width="120" height="121" viewBox="0 0 120 121" fill="none" xmlns="http://www.w3.org/2000/svg">
<rect x="10" y="10.5" width="100" height="100" rx="50" fill="#ECEEF2"/>
<rect x="10" y="10.5" width="100" height="100" rx="50" stroke="#F4F5F8" stroke-width="20"/>
<path d="M56.0957 70.5C56.0812 70.5 56.0661 70.5 56.0511 70.4994C55.5873 70.4873 55.1474 70.2911 54.8298 69.9538L45.3712 59.9257C44.7127 59.228 44.7464 58.1293 45.4454 57.4721C46.1444 56.8154 47.2452 56.8484 47.9037 57.5461L56.1589 66.2991L72.1604 50.983C72.8525 50.3199 73.9544 50.3419 74.6186 51.0345C75.2835 51.7264 75.2603 52.8251 74.5671 53.4887L57.299 70.0175C56.975 70.3276 56.5432 70.5 56.0957 70.5Z" fill="#37584D"/>
</svg>
