<svg width="26" height="24" viewBox="0 0 26 24" fill="none" xmlns="http://www.w3.org/2000/svg">
<path d="M12.7386 1.48499C9.75253 1.48499 6.8893 2.67036 4.77853 4.78241C2.66774 6.8932 1.48112 9.75647 1.48112 12.7425C1.48112 15.7274 2.66768 18.5906 4.77853 20.7026C6.88933 22.8134 9.7526 24 12.7386 24C15.7246 24 18.5879 22.8134 20.6987 20.7026C22.8095 18.5906 23.9961 15.7273 23.9961 12.7425C23.9925 9.7576 22.806 6.89561 20.6953 4.78607C18.5846 2.67528 15.7237 1.48743 12.7389 1.4853L12.7386 1.48499ZM13.6295 13.786V13.7848C13.6283 13.904 13.602 14.0209 13.5531 14.1282C13.5054 14.232 13.441 14.3274 13.3623 14.4085C13.2359 14.5253 13.0833 14.6088 12.9163 14.6506H12.5598H12.5609C12.394 14.6088 12.2413 14.5253 12.1149 14.4085L9.17655 11.4701C8.82596 11.1183 8.82596 10.5494 9.17655 10.1976C9.52833 9.84704 10.0972 9.84704 10.449 10.1976L11.8609 11.6096V6.52104V6.52224C11.8609 6.02972 12.2593 5.63141 12.7518 5.63141C13.2431 5.63141 13.6414 6.02972 13.6414 6.52224L13.6295 13.786ZM1.5324 4.46155C1.36903 4.63089 1.14365 4.72748 0.9087 4.72868C0.669 4.72868 0.440021 4.63208 0.27309 4.46155C0.0989807 4.29579 0 4.06562 0 3.82475C0 3.58505 0.0989807 3.35488 0.27309 3.18914L3.21149 0.275774C3.56208 -0.0748186 4.13212 -0.0748186 4.48274 0.275774C4.83452 0.627558 4.83452 1.1964 4.48274 1.54822L1.5324 4.46155ZM25.2042 4.46155C25.0372 4.63208 24.8083 4.72868 24.5686 4.72868C24.3336 4.72749 24.1083 4.63089 23.9449 4.46155L21.0065 1.53509C20.6559 1.1845 20.6559 0.614461 21.0065 0.263838C21.3582 -0.0879459 21.9271 -0.0879459 22.2789 0.263838L25.2042 3.21417C25.3711 3.37994 25.4641 3.60412 25.4641 3.83788C25.4641 4.07164 25.3711 4.29578 25.2042 4.46155Z" fill="#262626"/>
</svg>
