<svg width="32" height="32" viewBox="0 0 32 32" fill="none" xmlns="http://www.w3.org/2000/svg">
<g clip-path="url(#clip0_2137_1844)">
<path d="M0 5C0 2.23858 2.23858 0 5 0H27C29.7614 0 32 2.23858 32 5V27C32 29.7614 29.7614 32 27 32H5C2.23858 32 0 29.7614 0 27V5Z" fill="white"/>
<path d="M8 15.68C8 12.0587 8 10.2507 9.12 9.12C10.256 8 12.064 8 15.68 8H16.32C19.9413 8 21.7493 8 22.88 9.12C24 10.256 24 12.064 24 15.68V16.32C24 19.9413 24 21.7493 22.88 22.88C21.744 24 19.936 24 16.32 24H15.68C12.0587 24 10.2507 24 9.12 22.88C8 21.744 8 19.936 8 16.32V15.68Z" fill="#0077FF"/>
<path d="M16.5126 19.5253C12.8646 19.5253 10.7846 17.0293 10.6992 12.8693H12.5339C12.5926 15.92 13.9366 17.2107 15.0032 17.4773V12.8693H16.7259V15.4987C17.7766 15.3867 18.8859 14.1867 19.2592 12.864H20.9766C20.8365 13.5487 20.5568 14.1971 20.1549 14.7688C19.7529 15.3405 19.2374 15.8232 18.6406 16.1867C19.3067 16.5182 19.8949 16.9872 20.3665 17.5627C20.8381 18.1382 21.1824 18.8071 21.3766 19.5253H19.4832C19.0779 18.2613 18.0646 17.28 16.7259 17.1467V19.5253H16.5179H16.5126Z" fill="white"/>
</g>
<defs>
<clipPath id="clip0_2137_1844">
<rect width="32" height="32" rx="16" fill="white"/>
</clipPath>
</defs>
</svg>
