<svg width="49" height="49" viewBox="0 0 49 49" fill="none" xmlns="http://www.w3.org/2000/svg">
<path d="M1.75973 24.0327C1.75862 28.0396 2.80558 31.952 4.79637 35.4005L1.56934 47.1829L13.6272 44.0213C16.9622 45.8369 20.6989 46.7882 24.4961 46.7885H24.5061C37.0414 46.7885 47.2455 36.5881 47.2508 24.0506C47.2532 17.9753 44.8894 12.2624 40.5947 7.96439C36.3007 3.66673 30.5899 1.29867 24.5052 1.2959C11.9684 1.2959 1.7649 11.4957 1.75973 24.0327Z" fill="url(#paint0_linear_2110_18098)"/>
<path d="M17.4272 12.3676C16.9035 11.2037 16.3524 11.1802 15.8544 11.1598C15.4466 11.1423 14.9805 11.1436 14.5147 11.1436C14.0485 11.1436 13.2911 11.3189 12.6509 12.018C12.01 12.7177 10.2041 14.4086 10.2041 17.8476C10.2041 21.2869 12.709 24.6105 13.0582 25.0773C13.4079 25.5433 17.8941 32.8266 24.9991 35.6285C30.904 37.957 32.1057 37.4938 33.3873 37.3771C34.669 37.2608 37.5232 35.6866 38.1054 34.0544C38.6882 32.4223 38.6882 31.0233 38.5135 30.731C38.3388 30.4397 37.8726 30.2648 37.1735 29.9154C36.4743 29.5657 33.0376 27.8746 32.397 27.6413C31.7561 27.4082 31.2901 27.2919 30.8239 27.9918C30.3578 28.6907 29.0191 30.2648 28.6111 30.731C28.2035 31.1982 27.7955 31.2564 27.0967 30.9068C26.3972 30.556 24.146 29.8188 21.4751 27.4377C19.3971 25.5848 17.9942 23.2967 17.5864 22.5968C17.1786 21.8979 17.5427 21.5191 17.8932 21.1708C18.2073 20.8576 18.5925 20.3546 18.9423 19.9465C19.2908 19.5383 19.4072 19.247 19.6403 18.7809C19.8736 18.3143 19.7568 17.906 19.5823 17.5564C19.4072 17.2067 18.0488 13.7499 17.4272 12.3678" fill="white"/>
<defs>
<linearGradient id="paint0_linear_2110_18098" x1="24.4101" y1="47.1829" x2="24.4101" y2="1.2959" gradientUnits="userSpaceOnUse">
<stop stop-color="#1FAF38"/>
<stop offset="1" stop-color="#60D669"/>
</linearGradient>
</defs>
</svg>
