<svg width="100" height="70" viewBox="0 0 100 70" fill="none" xmlns="http://www.w3.org/2000/svg">
<path fill-rule="evenodd" clip-rule="evenodd" d="M88.75 1.875C93.125 3.125 96.25 6.25001 97.5 10.625C100 18.75 100 35 100 35C100 35 100 51.25 98.125 59.375C96.875 63.75 93.75 66.875 89.375 68.125C81.25 70 50 70 50 70C50 70 18.125 70 10.625 68.125C6.25 66.875 3.125 63.75 1.875 59.375C1.11759e-06 51.25 0 35 0 35C0 35 -1.21072e-06 18.75 1.25 10.625C2.5 6.25001 5.62506 3.125 10.0001 1.875C18.125 1.11759e-06 49.375 0 49.375 0C49.375 0 81.25 1.11759e-06 88.75 1.875Z" fill="#FF0000"/>
<path d="M66.2402 35.0012L39.9902 20.0012V50.0012L66.2402 35.0012Z" fill="white"/>
</svg>
