<svg width="26" height="24" viewBox="0 0 26 24" fill="none" xmlns="http://www.w3.org/2000/svg">
<path d="M14.6705 22.3855C13.8511 23.2048 12.5225 23.2048 11.7032 22.3855L7.54899 18.2313C6.72966 17.412 6.72966 16.0834 7.54899 15.264C8.36831 14.4447 9.69691 14.4447 10.5162 15.264L14.6705 19.4183C15.4898 20.2376 15.4898 21.566 14.6705 22.3855Z" stroke="#37584D"/>
<path d="M18.8246 20.6051C18.0051 21.4244 16.6766 21.4244 15.8573 20.6051L6.95542 11.7032C6.1361 10.8839 6.1361 9.55529 6.95542 8.73597C7.77474 7.91665 9.10335 7.91665 9.92267 8.73597L18.8246 17.6379C19.644 18.4572 19.644 19.7856 18.8246 20.6051Z" stroke="#37584D"/>
<path d="M19.4181 15.264C18.5988 16.0834 17.2702 16.0834 16.4509 15.264L7.54899 6.36214C6.72966 5.54282 6.72966 4.21422 7.54899 3.3949C8.36831 2.57557 9.69691 2.57557 10.5162 3.3949L19.4181 12.2968C20.2374 13.1161 20.2374 14.4446 19.4181 15.264Z" stroke="#37584D"/>
<path d="M18.8246 8.73597C18.0051 9.55529 16.6766 9.55529 15.8573 8.73597L11.7031 4.58174C10.8838 3.76242 10.8838 2.43381 11.7031 1.61449C12.5224 0.79517 13.851 0.79517 14.6703 1.61449L18.8246 5.76873C19.644 6.58805 19.644 7.91665 18.8246 8.73597Z" stroke="#37584D"/>
<path d="M4.58174 12.2968C3.76242 13.1161 2.43381 13.1161 1.61449 12.2968C0.795169 11.4775 0.795169 10.1489 1.61449 9.32954C2.43381 8.51021 3.76242 8.51021 4.58174 9.32954C5.40106 10.1489 5.40106 11.4773 4.58174 12.2968Z" stroke="#37584D"/>
<path d="M24.7592 14.6705C23.9399 15.4898 22.6113 15.4898 21.7919 14.6705C20.9726 13.8511 20.9726 12.5225 21.7919 11.7032C22.6113 10.8839 23.9399 10.8839 24.7592 11.7032C25.5785 12.5227 25.5785 13.8511 24.7592 14.6705Z" stroke="#37584D"/>
</svg>
