<svg width="22" height="22" viewBox="0 0 22 22" fill="none" xmlns="http://www.w3.org/2000/svg">
<g clip-path="url(#clip0_2452_1865)">
<path d="M10.9823 8.4375C9.55468 8.4375 8.41992 9.57226 8.41992 10.9999C8.41992 11.2195 8.56633 11.3659 8.78595 11.3659C9.00559 11.3659 9.152 11.2195 9.152 10.9999C9.152 9.97494 9.95731 9.16958 10.9823 9.16958C11.2019 9.16958 11.3483 9.02317 11.3483 8.80352C11.3483 8.58394 11.2019 8.4375 10.9823 8.4375Z" fill="#37584D"/>
<path d="M21.8902 11.2931C21.9634 11.2198 22 11.1467 22 11.0368C22 10.927 21.9634 10.8538 21.8902 10.7806C19.9871 8.87753 17.5723 8.33902 15.2722 9.26476C17.7268 8.17466 18.8519 5.70565 18.8519 3.49605C18.8519 3.27641 18.7055 3.13 18.4859 3.13C15.9787 3.13 13.9951 4.30172 12.9463 6.31568C13.6709 3.95365 12.7124 1.60278 11.2379 0.128361C11.0915 -0.0180474 10.8719 -0.0180474 10.7254 0.128361C8.94061 1.91319 8.3559 4.148 9.05372 6.31634C7.8848 4.13471 5.56539 3.13 3.47754 3.13C3.2579 3.13 3.11149 3.27641 3.11149 3.49605C3.11149 6.03535 4.31348 8.03743 6.37508 9.09676C3.98689 8.32659 1.60045 9.28995 0.109806 10.7806C-0.0366022 10.927 -0.0366022 11.1467 0.109806 11.2931C1.39102 12.5743 2.92845 13.2332 4.50249 13.2332C5.07834 13.2332 5.65419 13.1462 6.22421 12.968C4.09343 14.1493 3.11146 16.4401 3.11146 18.5045C3.11146 18.7241 3.25787 18.8705 3.47751 18.8705C5.98469 18.8705 7.96824 17.6988 9.01709 15.6848C8.29243 18.0469 9.25097 20.3977 10.7254 21.8721C10.7986 21.9454 10.8718 21.982 10.9817 21.982C11.0915 21.982 11.1647 21.9454 11.2013 21.9087C13.1044 20.0056 13.6429 17.591 12.7172 15.2907C13.8073 17.7454 16.2763 18.8705 18.4858 18.8705C18.7054 18.8705 18.8519 18.7241 18.8519 18.5045C18.8519 15.9728 17.6571 13.9751 15.6069 12.9344C16.1789 13.1135 16.7526 13.1966 17.3144 13.1966C19.0716 13.1966 20.7188 12.3912 21.8902 11.2931ZM21.0483 11.0003C19.5154 12.3141 17.1457 13.0455 14.9186 11.8528C14.9525 11.6939 14.9771 11.5316 14.9918 11.3663H16.4726C16.6922 11.3663 16.8386 11.2199 16.8386 11.0003C16.8386 10.7806 16.6922 10.6342 16.4726 10.6342H14.9918C14.9771 10.4691 14.9526 10.307 14.9187 10.1485C16.9997 9.09899 19.2604 9.39478 21.0483 11.0003ZM10.9817 14.2948C10.2066 14.2948 9.49779 14.0315 8.93739 13.5897C8.58811 13.3081 8.30082 12.9699 8.08987 12.5743C8.07975 12.5541 8.06737 12.5354 8.05343 12.5181C7.96961 12.3555 7.89863 12.1851 7.84242 12.0079C7.84377 11.9764 7.84105 11.9452 7.83362 11.9155C7.76166 11.7235 7.72153 11.516 7.70215 11.3132C7.69832 11.272 7.69511 11.2305 7.6928 11.1887C7.69211 11.1765 7.6915 11.1643 7.69101 11.1521C7.68878 11.1018 7.68721 11.0513 7.68721 11.0003C7.68721 10.2252 7.95053 9.51638 8.39229 8.95599C8.67386 8.60671 9.01211 8.31942 9.40767 8.10846C9.42791 8.09834 9.44658 8.08597 9.4639 8.07203C9.62648 7.98821 9.79682 7.91723 9.97408 7.86102C10.0056 7.86237 10.0368 7.85964 10.0665 7.85222C10.6522 7.66918 11.2745 7.66918 11.8968 7.85222C11.9187 7.85222 11.9407 7.85222 11.9626 7.85222C12.3541 7.97264 12.713 8.16415 13.026 8.41088C13.3752 8.69245 13.6625 9.0307 13.8735 9.42626C13.8813 9.43798 13.8898 9.44903 13.8984 9.45984C14.1395 9.91868 14.2762 10.4423 14.2762 11.0003C14.2762 11.7754 14.0129 12.4842 13.5711 13.0447C13.2895 13.3939 12.9512 13.6812 12.5557 13.8921C12.5355 13.9022 12.5168 13.9146 12.4995 13.9285C12.0461 14.1623 11.5306 14.2948 10.9817 14.2948ZM14.7271 9.51261C14.7229 9.50194 14.7185 9.49133 14.7141 9.48069C14.8339 9.44092 14.9506 9.39783 15.0648 9.3521C14.9519 9.40204 14.8394 9.45555 14.7271 9.51261ZM18.0832 3.86213C17.9736 5.8726 16.8051 8.06543 14.3596 8.80061C14.2729 8.66718 14.1785 8.53928 14.0769 8.41754L15.2646 7.22987C15.411 7.08346 15.411 6.86384 15.2646 6.71738C15.1182 6.57094 14.8985 6.57097 14.7521 6.71738L13.5644 7.90505C13.4427 7.80349 13.3148 7.70908 13.1813 7.62235C13.8792 5.35899 15.7074 4.00832 18.0832 3.86213ZM10.9817 0.933672C12.2956 2.46652 13.027 4.83621 11.8342 7.06335C11.6754 7.02947 11.5131 7.00489 11.3477 6.99018V5.50938C11.3477 5.28977 11.2013 5.14336 10.9817 5.14336C10.7621 5.14336 10.6157 5.28977 10.6157 5.50938V6.99018C10.4505 7.00489 10.2883 7.02942 10.1296 7.06327C9.04412 4.98226 9.37621 2.72159 10.9817 0.933672ZM3.84359 3.86213C5.85406 4.00838 8.04688 5.17683 8.78204 7.62235C8.64864 7.70908 8.52071 7.80354 8.39897 7.90507L7.21133 6.71743C7.06492 6.57102 6.84527 6.57102 6.69883 6.71743C6.55237 6.86384 6.55242 7.08348 6.69883 7.22992L7.88648 8.41756C7.78498 8.53928 7.69057 8.66715 7.60389 8.80053C5.3405 8.06625 3.98978 6.27446 3.84359 3.86213ZM0.915118 11.0003C2.4115 9.64984 4.78129 8.95464 7.04476 10.1479C7.01088 10.3066 6.98632 10.4689 6.97158 10.6342H5.49084C5.2712 10.6342 5.12479 10.7806 5.12479 11.0003C5.12479 11.2199 5.2712 11.3663 5.49084 11.3663H6.97161C6.98632 11.5314 7.01088 11.6936 7.0447 11.8523C4.96372 12.9378 2.70303 12.6057 0.915118 11.0003ZM3.88017 18.1383C3.98981 16.1279 5.15826 13.9351 7.60375 13.1999C7.69048 13.3333 7.78489 13.4612 7.88648 13.583L6.69883 14.7706C6.55242 14.917 6.55242 15.1367 6.69883 15.2831C6.77207 15.3563 6.84524 15.3929 6.95505 15.3929C7.06486 15.3929 7.13809 15.3563 7.21127 15.2831L8.39894 14.0955C8.52978 14.2046 8.66756 14.3056 8.81182 14.3976C8.07364 16.6491 6.28551 17.9925 3.88017 18.1383ZM10.9817 21.0668C9.66785 19.5339 8.9364 17.1642 10.1292 14.9371C10.288 14.971 10.4503 14.9956 10.6157 15.0103V16.4911C10.6157 16.7107 10.7621 16.8571 10.9817 16.8571C11.2013 16.8571 11.3477 16.7107 11.3477 16.4911V15.0103C11.5129 14.9956 11.6751 14.971 11.8338 14.9372C12.9193 17.0182 12.5872 19.2789 10.9817 21.0668ZM12.4693 14.7457C12.48 14.7415 12.4906 14.737 12.5013 14.7327C12.541 14.8524 12.5841 14.9691 12.6298 15.0833C12.5799 14.9705 12.5264 14.8579 12.4693 14.7457ZM18.1198 18.1017C16.1093 17.9921 13.9165 16.8237 13.1813 14.3782C13.3148 14.2914 13.4427 14.197 13.5644 14.0954L14.7521 15.2831C14.8253 15.3563 14.8985 15.3929 15.0083 15.3929C15.1181 15.3929 15.1913 15.3563 15.2645 15.2831C15.4109 15.1367 15.4109 14.917 15.2645 14.7706L14.0769 13.5829C14.186 13.4521 14.287 13.3143 14.379 13.17C16.6305 13.9083 17.974 15.6964 18.1198 18.1017Z" fill="#37584D"/>
</g>
<defs>
<clipPath id="clip0_2452_1865">
<rect width="22" height="22" fill="white"/>
</clipPath>
</defs>
</svg>
