<svg width="170" height="70" viewBox="0 0 170 70" fill="none" xmlns="http://www.w3.org/2000/svg">
<path fill-rule="evenodd" clip-rule="evenodd" d="M57.9646 0.0193344C57.9082 0.0403807 57.6859 0.0850559 57.4706 0.11873C56.9847 0.194496 56.308 0.742751 56.0507 1.2691C55.9096 1.55743 55.863 1.89063 55.8613 2.62027C55.8579 4.07342 56.1643 4.68433 57.1429 5.17624C57.5267 5.36901 57.6964 5.38269 59.7108 5.38269C61.7231 5.38269 61.8953 5.36891 62.2787 5.17672C63.1255 4.75225 63.4568 4.17425 63.5374 2.98016C63.6323 1.57427 63.1886 0.632354 62.2459 0.238407C61.8256 0.062862 61.5325 0.0339712 59.9162 0.00928966C58.8993 -0.0063037 58.0211 -0.0018075 57.9646 0.0193344ZM1.21335 0.579261C0.585558 0.888449 0.210136 1.35969 0.0835914 1.99759C0.01354 2.35021 -0.0127549 6.87305 0.00573377 15.3883C0.03624 29.4723 -0.00731112 28.498 0.614421 29.0246C1.26029 29.5717 0.337913 29.538 14.6704 29.538C29.2583 29.538 28.0785 29.5931 28.77 28.8803C29.2361 28.3997 29.2795 28.1755 29.2381 26.463C29.206 25.1337 29.1925 25.0579 28.922 24.6775C28.7666 24.459 28.4564 24.1933 28.2328 24.0871C27.8333 23.8973 27.6549 23.8938 18.1741 23.8938C9.53663 23.8938 8.50527 23.878 8.36075 23.7435C8.21592 23.6086 8.19939 22.4832 8.19939 12.7868C8.19939 0.955796 8.23267 1.61483 7.60333 0.99722C6.98725 0.392618 6.80976 0.360284 4.11103 0.360284C1.7527 0.360284 1.64075 0.368702 1.21335 0.579261ZM69.6535 0.547787C68.9596 0.941734 69.0065 -0.0645638 69.0065 14.4512C69.0065 26.9431 69.0155 27.6027 69.1897 27.7496C69.8533 28.3088 73.3687 29.3014 75.5289 29.5394C75.9243 29.583 76.6407 29.6668 77.1209 29.7257C79.8595 30.0616 80.9207 30.0795 83.3865 29.8313C84.335 29.7357 84.5997 29.6914 86.1085 29.3755C89.7081 28.6219 92.6489 26.1241 93.6325 22.985C94.1735 21.2584 94.2181 20.9079 94.2176 18.3931C94.2171 16.2985 94.1893 15.8827 93.9943 15.0448C93.0138 10.8337 90.4547 8.27741 86.134 7.19305C85.1402 6.94365 84.9579 6.92872 82.873 6.92671C81.5107 6.92538 80.4678 6.96833 80.151 7.03864C79.8686 7.1014 79.1521 7.26594 78.5589 7.40427C77.9658 7.54261 77.3296 7.67644 77.1452 7.7017C76.4962 7.79076 76.5046 7.83371 76.5046 4.43675C76.5046 0.0914655 76.7551 0.360092 72.7058 0.360666C70.1857 0.360953 69.9577 0.37492 69.6535 0.547787ZM123.702 0.518992C123.224 0.753179 122.821 1.13679 122.613 1.55609C122.431 1.92259 122.423 2.49016 122.42 14.9761C122.418 26.5303 122.436 28.0539 122.577 28.3679C122.78 28.8195 123.088 29.1259 123.572 29.357C123.944 29.535 124.328 29.5395 137.2 29.5152C150.402 29.4903 150.445 29.4895 150.728 29.2927C150.884 29.1841 151.154 28.9327 151.326 28.7341C151.64 28.3733 151.64 28.3718 151.674 26.9768C151.693 26.2089 151.678 25.4353 151.642 25.2576C151.563 24.8656 150.941 24.1991 150.488 24.0227C150.219 23.9177 148.375 23.8938 140.558 23.8938C131.968 23.8938 130.941 23.878 130.797 23.7435C130.652 23.6086 130.635 22.491 130.635 12.8728C130.635 5.11683 130.603 2.05154 130.518 1.78779C130.363 1.30708 129.889 0.782548 129.397 0.548839C129.033 0.376164 128.79 0.360571 126.505 0.36411C124.436 0.367267 123.958 0.393766 123.702 0.518992ZM56.5352 7.98863C56.1492 8.09873 55.9042 8.47726 55.9617 8.87445V18.624C55.9617 29.5359 55.9364 29.0856 56.5649 29.3882C56.8254 29.5137 57.3414 29.538 59.7432 29.538C62.529 29.538 62.6185 29.5321 62.8935 29.3306C63.483 28.8988 63.4599 29.3349 63.4595 18.6592C63.4592 9.07582 63.454 8.81887 63.2586 8.5204C62.8786 7.9399 62.7446 7.9178 59.6011 7.9178H56.7835L56.5352 7.98863ZM32.6332 9.39439C31.9441 9.83052 31.9778 9.31613 31.9778 19.3976C31.9778 28.0119 31.9884 28.5516 32.1626 28.8487C32.2642 29.022 32.4953 29.2479 32.6762 29.3505C32.9958 29.5321 33.261 29.5374 42.1979 29.5374C51.2358 29.5374 51.3967 29.534 51.7307 29.3444C52.2343 29.0585 52.4649 28.5032 52.4649 27.5769C52.4649 26.6506 52.2343 26.0954 51.7307 25.8094C51.3992 25.6212 51.2283 25.6165 44.7474 25.6162C38.8452 25.6158 38.0861 25.599 37.9426 25.4655C37.807 25.3391 37.7812 25.0192 37.7812 23.4633C37.7812 21.9074 37.807 21.5875 37.9426 21.4612C38.0855 21.3282 38.7564 21.3109 43.7716 21.3107C48.9646 21.3106 49.4688 21.2965 49.7915 21.1433C50.4306 20.8398 50.5649 20.5594 50.604 19.4471C50.644 18.3088 50.4944 17.8719 49.9611 17.569C49.6615 17.3989 49.3389 17.3893 43.8743 17.389C38.7659 17.3886 38.0856 17.3714 37.9426 17.2383C37.7023 17.0145 37.7023 13.4578 37.9426 13.234C38.0861 13.1004 38.85 13.0837 44.7988 13.0833C51.1678 13.083 51.509 13.0742 51.81 12.9033C52.3127 12.6178 52.4695 12.1907 52.469 11.1081C52.4686 10.0414 52.3196 9.68951 51.7257 9.35229C51.3982 9.16632 51.1899 9.16211 42.1961 9.16183L33.0013 9.16144L32.6332 9.39439ZM98.7936 9.37669C98.6075 9.49512 98.3695 9.74194 98.265 9.92523C98.0837 10.2429 98.0747 10.6851 98.0749 19.3482C98.075 29.4875 98.0299 28.8522 98.7833 29.3209L99.1323 29.538H108.32C118.577 29.538 117.864 29.5862 118.3 28.864C118.479 28.5671 118.515 28.3448 118.515 27.5352C118.515 26.4307 118.392 26.1006 117.868 25.8033C117.551 25.6231 117.303 25.6165 110.844 25.6162C104.895 25.6158 104.132 25.599 103.988 25.4655C103.853 25.3391 103.827 25.0192 103.827 23.4633C103.827 21.9074 103.853 21.5875 103.988 21.4612C104.131 21.3282 104.807 21.3109 109.869 21.3107C115.11 21.3106 115.617 21.2966 115.94 21.1433C116.565 20.8465 116.713 20.5518 116.753 19.5253C116.797 18.4199 116.612 17.8545 116.115 17.5722C115.808 17.3979 115.522 17.3893 109.98 17.389C104.479 17.3886 104.158 17.3792 103.997 17.2136C103.851 17.0638 103.827 16.7781 103.827 15.2195C103.827 13.5787 103.845 13.3849 104.015 13.242C104.185 13.0981 104.812 13.0837 110.902 13.0837C118.428 13.0837 118.06 13.1179 118.418 12.3838C118.563 12.0871 118.614 11.7608 118.615 11.1226C118.618 10.122 118.454 9.71754 117.909 9.3786L117.56 9.16144H108.346H99.1323L98.7936 9.37669ZM82.3594 11.8336C84.2658 12.0291 85.5154 12.9076 86.1721 14.514C86.533 15.3969 86.7693 16.9182 86.7729 18.3817C86.7834 22.6942 85.4036 24.6988 82.2416 24.9656C81.0942 25.0623 77.7959 24.9277 77.2015 24.7598C76.4549 24.5489 76.5046 24.9864 76.5046 18.6332C76.5046 15.4844 76.5332 12.8387 76.5681 12.754C76.6514 12.5518 76.9068 12.4308 77.6161 12.2575C79.4805 11.802 80.8535 11.6793 82.3594 11.8336Z" fill="#37584D"/>
<rect y="40" width="170" height="30" rx="4" fill="#D3BBA1"/>
<path d="M8.325 52.95C8.575 52.95 8.78333 52.9233 8.95 52.87C9.12 52.8133 9.25667 52.7367 9.36 52.64C9.46333 52.5433 9.53667 52.43 9.58 52.3C9.62333 52.17 9.645 52.03 9.645 51.88C9.645 51.7167 9.62333 51.5683 9.58 51.435C9.53667 51.3017 9.46333 51.19 9.36 51.1C9.25667 51.0067 9.12167 50.935 8.955 50.885C8.78833 50.835 8.58 50.81 8.33 50.81H7.15V52.95H8.325ZM8.33 49.76C8.8 49.76 9.20167 49.8117 9.535 49.915C9.87167 50.0183 10.145 50.16 10.355 50.34C10.5683 50.5167 10.725 50.7267 10.825 50.97C10.925 51.21 10.975 51.4683 10.975 51.745C10.975 52.085 10.915 52.3933 10.795 52.67C10.6783 52.9467 10.5067 53.185 10.28 53.385C10.0533 53.5817 9.775 53.7333 9.445 53.84C9.11833 53.9467 8.745 54 8.325 54H5.805V46.77H10.71V47.81H7.15V49.76H8.33ZM19.4488 46.77V54H18.0988V49.47C18.0988 49.3 18.1022 49.1217 18.1088 48.935C18.1188 48.7483 18.1388 48.55 18.1688 48.34C18.1022 48.5267 18.0288 48.7 17.9488 48.86C17.8722 49.0167 17.7972 49.155 17.7238 49.275L14.9588 53.585C14.9288 53.635 14.8922 53.685 14.8488 53.735C14.8088 53.785 14.7638 53.83 14.7138 53.87C14.6638 53.9067 14.6088 53.9383 14.5488 53.965C14.4888 53.9883 14.4272 54 14.3638 54H13.3538V46.77H14.7038V51.3C14.7038 51.47 14.6988 51.65 14.6888 51.84C14.6822 52.0267 14.6638 52.225 14.6338 52.435C14.7005 52.2483 14.7722 52.075 14.8488 51.915C14.9288 51.755 15.0072 51.615 15.0838 51.495L17.8438 47.185C17.8738 47.135 17.9088 47.085 17.9488 47.035C17.9922 46.985 18.0388 46.9417 18.0888 46.905C18.1388 46.865 18.1922 46.8333 18.2488 46.81C18.3088 46.7833 18.3722 46.77 18.4388 46.77H19.4488ZM21.8939 47.45C22.1739 47.21 22.5056 47.0233 22.8889 46.89C23.2756 46.7567 23.7039 46.69 24.1739 46.69C24.5639 46.69 24.9156 46.7367 25.2289 46.83C25.5456 46.9233 25.8139 47.055 26.0339 47.225C26.2539 47.3917 26.4222 47.5917 26.5389 47.825C26.6589 48.055 26.7189 48.3083 26.7189 48.585C26.7189 48.925 26.6406 49.2333 26.4839 49.51C26.3306 49.7833 26.0972 50.005 25.7839 50.175C25.9506 50.255 26.1022 50.35 26.2389 50.46C26.3789 50.5667 26.4972 50.6867 26.5939 50.82C26.6939 50.95 26.7706 51.0917 26.8239 51.245C26.8806 51.3983 26.9089 51.5617 26.9089 51.735C26.9089 52.0617 26.8472 52.3667 26.7239 52.65C26.6039 52.9333 26.4272 53.18 26.1939 53.39C25.9639 53.6 25.6806 53.7667 25.3439 53.89C25.0072 54.01 24.6222 54.07 24.1889 54.07C23.9356 54.07 23.6872 54.0467 23.4439 54C23.2039 53.9567 22.9739 53.8933 22.7539 53.81C22.5339 53.7267 22.3272 53.6267 22.1339 53.51C21.9406 53.3933 21.7689 53.2633 21.6189 53.12L22.0139 52.475C22.0506 52.4283 22.0939 52.39 22.1439 52.36C22.1972 52.3267 22.2556 52.31 22.3189 52.31C22.4056 52.31 22.5006 52.345 22.6039 52.415C22.7072 52.4817 22.8322 52.5567 22.9789 52.64C23.1256 52.7233 23.2989 52.8 23.4989 52.87C23.7022 52.9367 23.9456 52.97 24.2289 52.97C24.6789 52.97 25.0272 52.8733 25.2739 52.68C25.5206 52.4867 25.6439 52.19 25.6439 51.79C25.6439 51.6267 25.6106 51.48 25.5439 51.35C25.4772 51.22 25.3822 51.11 25.2589 51.02C25.1356 50.93 24.9856 50.8617 24.8089 50.815C24.6356 50.765 24.4422 50.74 24.2289 50.74H23.2089L23.2039 49.66H24.1339C24.5506 49.66 24.8756 49.5783 25.1089 49.415C25.3456 49.2483 25.4639 49.0083 25.4639 48.695C25.4639 48.4183 25.3522 48.1983 25.1289 48.035C24.9089 47.8683 24.5889 47.785 24.1689 47.785C23.9256 47.785 23.7156 47.8117 23.5389 47.865C23.3656 47.9183 23.2139 47.9767 23.0839 48.04C22.9572 48.1 22.8489 48.1567 22.7589 48.21C22.6722 48.2633 22.5939 48.29 22.5239 48.29C22.4572 48.29 22.4006 48.2733 22.3539 48.24C22.3072 48.2067 22.2639 48.1567 22.2239 48.09L21.8939 47.45ZM35.4645 46.77V54H34.1145V50.84H30.7195V54H29.3695V46.77H30.7195V49.88H34.1145V46.77H35.4645ZM39.6745 47.84V49.845H42.2045V50.88H39.6745V52.925H42.8845V54H38.3245V46.77H42.8845V47.84H39.6745ZM50.1352 52.295C50.2086 52.295 50.2736 52.3233 50.3302 52.38L50.8602 52.955C50.5669 53.3183 50.2052 53.5967 49.7752 53.79C49.3486 53.9833 48.8352 54.08 48.2352 54.08C47.6986 54.08 47.2152 53.9883 46.7852 53.805C46.3586 53.6217 45.9936 53.3667 45.6902 53.04C45.3869 52.7133 45.1536 52.3233 44.9902 51.87C44.8302 51.4167 44.7502 50.9217 44.7502 50.385C44.7502 49.8417 44.8369 49.345 45.0102 48.895C45.1836 48.4417 45.4269 48.0517 45.7402 47.725C46.0569 47.3983 46.4336 47.145 46.8702 46.965C47.3069 46.7817 47.7902 46.69 48.3202 46.69C48.8469 46.69 49.3136 46.7767 49.7202 46.95C50.1302 47.1233 50.4786 47.35 50.7652 47.63L50.3152 48.255C50.2886 48.295 50.2536 48.33 50.2102 48.36C50.1702 48.39 50.1136 48.405 50.0402 48.405C49.9902 48.405 49.9386 48.3917 49.8852 48.365C49.8319 48.335 49.7736 48.3 49.7102 48.26C49.6469 48.2167 49.5736 48.17 49.4902 48.12C49.4069 48.07 49.3102 48.025 49.2002 47.985C49.0902 47.9417 48.9619 47.9067 48.8152 47.88C48.6719 47.85 48.5052 47.835 48.3152 47.835C47.9919 47.835 47.6952 47.8933 47.4252 48.01C47.1586 48.1233 46.9286 48.29 46.7352 48.51C46.5419 48.7267 46.3919 48.9933 46.2852 49.31C46.1786 49.6233 46.1252 49.9817 46.1252 50.385C46.1252 50.7917 46.1819 51.1533 46.2952 51.47C46.4119 51.7867 46.5686 52.0533 46.7652 52.27C46.9619 52.4867 47.1936 52.6533 47.4602 52.77C47.7269 52.8833 48.0136 52.94 48.3202 52.94C48.5036 52.94 48.6686 52.93 48.8152 52.91C48.9652 52.89 49.1019 52.8583 49.2252 52.815C49.3519 52.7717 49.4702 52.7167 49.5802 52.65C49.6936 52.58 49.8052 52.495 49.9152 52.395C49.9486 52.365 49.9836 52.3417 50.0202 52.325C50.0569 52.305 50.0952 52.295 50.1352 52.295ZM62.5582 54H61.2032V47.805H58.0632V54H56.7132V46.77H62.5582V54ZM72.3094 50.385C72.3094 50.915 72.221 51.4067 72.0444 51.86C71.871 52.31 71.6244 52.7 71.3044 53.03C70.9844 53.36 70.5994 53.6183 70.1494 53.805C69.6994 53.9883 69.1994 54.08 68.6494 54.08C68.1027 54.08 67.6044 53.9883 67.1544 53.805C66.7044 53.6183 66.3177 53.36 65.9944 53.03C65.6744 52.7 65.426 52.31 65.2494 51.86C65.0727 51.4067 64.9844 50.915 64.9844 50.385C64.9844 49.855 65.0727 49.365 65.2494 48.915C65.426 48.4617 65.6744 48.07 65.9944 47.74C66.3177 47.41 66.7044 47.1533 67.1544 46.97C67.6044 46.7833 68.1027 46.69 68.6494 46.69C69.016 46.69 69.361 46.7333 69.6844 46.82C70.0077 46.9033 70.3044 47.0233 70.5744 47.18C70.8444 47.3333 71.086 47.5217 71.2994 47.745C71.516 47.965 71.6994 48.2117 71.8494 48.485C71.9994 48.7583 72.1127 49.055 72.1894 49.375C72.2694 49.695 72.3094 50.0317 72.3094 50.385ZM70.9344 50.385C70.9344 49.9883 70.881 49.6333 70.7744 49.32C70.6677 49.0033 70.516 48.735 70.3194 48.515C70.1227 48.295 69.8827 48.1267 69.5994 48.01C69.3194 47.8933 69.0027 47.835 68.6494 47.835C68.296 47.835 67.9777 47.8933 67.6944 48.01C67.4144 48.1267 67.1744 48.295 66.9744 48.515C66.7777 48.735 66.626 49.0033 66.5194 49.32C66.4127 49.6333 66.3594 49.9883 66.3594 50.385C66.3594 50.7817 66.4127 51.1383 66.5194 51.455C66.626 51.7683 66.7777 52.035 66.9744 52.255C67.1744 52.4717 67.4144 52.6383 67.6944 52.755C67.9777 52.8717 68.296 52.93 68.6494 52.93C69.0027 52.93 69.3194 52.8717 69.5994 52.755C69.8827 52.6383 70.1227 52.4717 70.3194 52.255C70.516 52.035 70.6677 51.7683 70.7744 51.455C70.881 51.1383 70.9344 50.7817 70.9344 50.385ZM79.0566 52.965V47.805H77.0816C77.0416 48.515 76.9866 49.145 76.9166 49.695C76.85 50.245 76.7716 50.7283 76.6816 51.145C76.5916 51.5617 76.4916 51.9183 76.3816 52.215C76.2716 52.5117 76.1533 52.7617 76.0266 52.965H79.0566ZM81.5316 52.965V55.335C81.5316 55.4517 81.4916 55.545 81.4116 55.615C81.335 55.685 81.2333 55.72 81.1066 55.72H80.2966V54H74.9866V55.335C74.9866 55.4517 74.9466 55.545 74.8666 55.615C74.79 55.685 74.6883 55.72 74.5616 55.72H73.7516V52.965H74.5416C74.635 52.915 74.7266 52.835 74.8166 52.725C74.91 52.615 75 52.46 75.0866 52.26C75.1733 52.06 75.255 51.8067 75.3316 51.5C75.4116 51.1933 75.4833 50.82 75.5466 50.38C75.61 49.9367 75.6633 49.4183 75.7066 48.825C75.7533 48.2317 75.7883 47.5467 75.8116 46.77H80.4066V52.965H81.5316ZM87.6666 51.27L86.7866 48.865C86.7433 48.7583 86.6983 48.6317 86.6516 48.485C86.605 48.3383 86.5583 48.18 86.5116 48.01C86.4683 48.18 86.4233 48.34 86.3766 48.49C86.33 48.6367 86.285 48.765 86.2416 48.875L85.3666 51.27H87.6666ZM90.0416 54H89.0016C88.885 54 88.79 53.9717 88.7166 53.915C88.6433 53.855 88.5883 53.7817 88.5516 53.695L88.0116 52.22H85.0166L84.4766 53.695C84.45 53.7717 84.3983 53.8417 84.3216 53.905C84.245 53.9683 84.1483 54 84.0316 54H82.9866L85.8266 46.77H87.2016L90.0416 54ZM94.3757 50.405C94.6224 50.405 94.8374 50.375 95.0207 50.315C95.204 50.2517 95.3557 50.1633 95.4757 50.05C95.599 49.9333 95.6907 49.7933 95.7507 49.63C95.8107 49.4633 95.8407 49.2783 95.8407 49.075C95.8407 48.8817 95.8107 48.7067 95.7507 48.55C95.6907 48.3933 95.6007 48.26 95.4807 48.15C95.3607 48.04 95.209 47.9567 95.0257 47.9C94.8424 47.84 94.6257 47.81 94.3757 47.81H93.3707V50.405H94.3757ZM94.3757 46.77C94.859 46.77 95.2774 46.8267 95.6307 46.94C95.984 47.0533 96.2757 47.2117 96.5057 47.415C96.7357 47.6183 96.9057 47.8617 97.0157 48.145C97.129 48.4283 97.1857 48.7383 97.1857 49.075C97.1857 49.425 97.1274 49.7467 97.0107 50.04C96.894 50.33 96.719 50.58 96.4857 50.79C96.2524 51 95.959 51.1633 95.6057 51.28C95.2557 51.3967 94.8457 51.455 94.3757 51.455H93.3707V54H92.0257V46.77H94.3757ZM105.602 54H104.382C104.255 54 104.149 53.9667 104.062 53.9C103.979 53.8333 103.9 53.735 103.827 53.605L102.287 51.175C102.247 51.105 102.204 51.0483 102.157 51.005C102.114 50.9583 102.065 50.9217 102.012 50.895C101.962 50.865 101.904 50.845 101.837 50.835C101.774 50.825 101.7 50.82 101.617 50.82H100.812V54H99.4671V46.77H100.812V49.8H101.492C101.629 49.8 101.747 49.7767 101.847 49.73C101.947 49.6833 102.04 49.5967 102.127 49.47L103.712 47.13C103.779 47.0233 103.857 46.9367 103.947 46.87C104.037 46.8033 104.145 46.77 104.272 46.77H105.422L103.457 49.67C103.374 49.7967 103.277 49.9017 103.167 49.985C103.057 50.0683 102.935 50.1333 102.802 50.18C103.002 50.2367 103.17 50.3267 103.307 50.45C103.447 50.57 103.58 50.7367 103.707 50.95L105.602 54ZM113.775 46.77V54H112.425V49.47C112.425 49.3 112.428 49.1217 112.435 48.935C112.445 48.7483 112.465 48.55 112.495 48.34C112.428 48.5267 112.355 48.7 112.275 48.86C112.198 49.0167 112.123 49.155 112.05 49.275L109.285 53.585C109.255 53.635 109.218 53.685 109.175 53.735C109.135 53.785 109.09 53.83 109.04 53.87C108.99 53.9067 108.935 53.9383 108.875 53.965C108.815 53.9883 108.753 54 108.69 54H107.68V46.77H109.03V51.3C109.03 51.47 109.025 51.65 109.015 51.84C109.008 52.0267 108.99 52.225 108.96 52.435C109.027 52.2483 109.098 52.075 109.175 51.915C109.255 51.755 109.333 51.615 109.41 51.495L112.17 47.185C112.2 47.135 112.235 47.085 112.275 47.035C112.318 46.985 112.365 46.9417 112.415 46.905C112.465 46.865 112.518 46.8333 112.575 46.81C112.635 46.7833 112.698 46.77 112.765 46.77H113.775ZM120.107 50.565H126.892V51.44H120.107V50.565ZM141.067 46.77V54H139.882V49.33C139.882 49.1433 139.892 48.9417 139.912 48.725L137.727 52.83C137.624 53.0267 137.465 53.125 137.252 53.125H137.062C136.849 53.125 136.69 53.0267 136.587 52.83L134.377 48.71C134.387 48.82 134.395 48.9283 134.402 49.035C134.409 49.1417 134.412 49.24 134.412 49.33V54H133.227V46.77H134.242C134.302 46.77 134.354 46.7717 134.397 46.775C134.44 46.7783 134.479 46.7867 134.512 46.8C134.549 46.8133 134.58 46.835 134.607 46.865C134.637 46.895 134.665 46.935 134.692 46.985L136.857 51C136.914 51.1067 136.965 51.2167 137.012 51.33C137.062 51.4433 137.11 51.56 137.157 51.68C137.204 51.5567 137.252 51.4383 137.302 51.325C137.352 51.2083 137.405 51.0967 137.462 50.99L139.597 46.985C139.624 46.935 139.652 46.895 139.682 46.865C139.712 46.835 139.744 46.8133 139.777 46.8C139.814 46.7867 139.854 46.7783 139.897 46.775C139.94 46.7717 139.992 46.77 140.052 46.77H141.067ZM145.28 47.84V49.845H147.81V50.88H145.28V52.925H148.49V54H143.93V46.77H148.49V47.84H145.28ZM153.282 50.405C153.529 50.405 153.744 50.375 153.927 50.315C154.11 50.2517 154.262 50.1633 154.382 50.05C154.505 49.9333 154.597 49.7933 154.657 49.63C154.717 49.4633 154.747 49.2783 154.747 49.075C154.747 48.8817 154.717 48.7067 154.657 48.55C154.597 48.3933 154.507 48.26 154.387 48.15C154.267 48.04 154.115 47.9567 153.932 47.9C153.749 47.84 153.532 47.81 153.282 47.81H152.277V50.405H153.282ZM153.282 46.77C153.765 46.77 154.184 46.8267 154.537 46.94C154.89 47.0533 155.182 47.2117 155.412 47.415C155.642 47.6183 155.812 47.8617 155.922 48.145C156.035 48.4283 156.092 48.7383 156.092 49.075C156.092 49.425 156.034 49.7467 155.917 50.04C155.8 50.33 155.625 50.58 155.392 50.79C155.159 51 154.865 51.1633 154.512 51.28C154.162 51.3967 153.752 51.455 153.282 51.455H152.277V54H150.932V46.77H153.282ZM163.523 46.77V54H162.168V51.105C161.778 51.2017 161.403 51.2733 161.043 51.32C160.687 51.3667 160.352 51.3817 160.038 51.365C159.728 51.3483 159.445 51.2967 159.188 51.21C158.932 51.12 158.712 50.9867 158.528 50.81C158.348 50.6333 158.208 50.41 158.108 50.14C158.008 49.8667 157.958 49.5383 157.958 49.155V46.77H159.313V49.155C159.313 49.435 159.362 49.6683 159.458 49.855C159.555 50.0383 159.713 50.1733 159.933 50.26C160.157 50.3467 160.45 50.3817 160.813 50.365C161.18 50.3483 161.632 50.275 162.168 50.145V46.77H163.523ZM5.595 60.565H12.38V61.44H5.595V60.565ZM19.9985 62.295C20.0718 62.295 20.1368 62.3233 20.1935 62.38L20.7235 62.955C20.4302 63.3183 20.0685 63.5967 19.6385 63.79C19.2118 63.9833 18.6985 64.08 18.0985 64.08C17.5618 64.08 17.0785 63.9883 16.6485 63.805C16.2218 63.6217 15.8568 63.3667 15.5535 63.04C15.2502 62.7133 15.0168 62.3233 14.8535 61.87C14.6935 61.4167 14.6135 60.9217 14.6135 60.385C14.6135 59.8417 14.7002 59.345 14.8735 58.895C15.0468 58.4417 15.2902 58.0517 15.6035 57.725C15.9202 57.3983 16.2968 57.145 16.7335 56.965C17.1702 56.7817 17.6535 56.69 18.1835 56.69C18.7102 56.69 19.1768 56.7767 19.5835 56.95C19.9935 57.1233 20.3418 57.35 20.6285 57.63L20.1785 58.255C20.1518 58.295 20.1168 58.33 20.0735 58.36C20.0335 58.39 19.9768 58.405 19.9035 58.405C19.8535 58.405 19.8018 58.3917 19.7485 58.365C19.6952 58.335 19.6368 58.3 19.5735 58.26C19.5102 58.2167 19.4368 58.17 19.3535 58.12C19.2702 58.07 19.1735 58.025 19.0635 57.985C18.9535 57.9417 18.8252 57.9067 18.6785 57.88C18.5352 57.85 18.3685 57.835 18.1785 57.835C17.8552 57.835 17.5585 57.8933 17.2885 58.01C17.0218 58.1233 16.7918 58.29 16.5985 58.51C16.4052 58.7267 16.2552 58.9933 16.1485 59.31C16.0418 59.6233 15.9885 59.9817 15.9885 60.385C15.9885 60.7917 16.0452 61.1533 16.1585 61.47C16.2752 61.7867 16.4318 62.0533 16.6285 62.27C16.8252 62.4867 17.0568 62.6533 17.3235 62.77C17.5902 62.8833 17.8768 62.94 18.1835 62.94C18.3668 62.94 18.5318 62.93 18.6785 62.91C18.8285 62.89 18.9652 62.8583 19.0885 62.815C19.2152 62.7717 19.3335 62.7167 19.4435 62.65C19.5568 62.58 19.6685 62.495 19.7785 62.395C19.8118 62.365 19.8468 62.3417 19.8835 62.325C19.9202 62.305 19.9585 62.295 19.9985 62.295ZM28.6298 56.77L25.7098 62.995C25.6065 63.2117 25.4965 63.39 25.3798 63.53C25.2632 63.67 25.1365 63.78 24.9998 63.86C24.8665 63.94 24.7215 63.995 24.5648 64.025C24.4115 64.0583 24.2465 64.075 24.0698 64.075C23.8298 64.075 23.6548 64.0533 23.5448 64.01C23.4348 63.9667 23.3798 63.9033 23.3798 63.82V62.98H23.7698C23.8432 62.98 23.9182 62.9733 23.9948 62.96C24.0715 62.9467 24.1465 62.92 24.2198 62.88C24.2965 62.84 24.3698 62.7833 24.4398 62.71C24.5098 62.6367 24.5748 62.54 24.6348 62.42L24.9198 61.84L22.0198 56.77H23.2798C23.3965 56.77 23.4898 56.7983 23.5598 56.855C23.6298 56.9117 23.6882 56.9833 23.7348 57.07L25.1398 59.72C25.2165 59.8667 25.2848 60.0117 25.3448 60.155C25.4082 60.2983 25.4632 60.445 25.5098 60.595C25.5965 60.295 25.7082 60.0033 25.8448 59.72L27.0698 57.07C27.1065 56.9967 27.1615 56.9283 27.2348 56.865C27.3082 56.8017 27.4015 56.77 27.5148 56.77H28.6298ZM33.2952 62.95C33.5452 62.95 33.7552 62.92 33.9252 62.86C34.0952 62.8 34.2302 62.72 34.3302 62.62C34.4335 62.52 34.5068 62.4033 34.5502 62.27C34.5968 62.1367 34.6202 61.995 34.6202 61.845C34.6202 61.6883 34.5952 61.5483 34.5452 61.425C34.4952 61.2983 34.4168 61.1917 34.3102 61.105C34.2035 61.015 34.0652 60.9467 33.8952 60.9C33.7285 60.8533 33.5268 60.83 33.2902 60.83H31.9352V62.95H33.2952ZM31.9352 57.81V59.9H33.0052C33.4652 59.9 33.8118 59.8167 34.0452 59.65C34.2818 59.4833 34.4002 59.2183 34.4002 58.855C34.4002 58.4783 34.2935 58.21 34.0802 58.05C33.8668 57.89 33.5335 57.81 33.0802 57.81H31.9352ZM33.0802 56.77C33.5535 56.77 33.9585 56.815 34.2952 56.905C34.6318 56.995 34.9068 57.1233 35.1202 57.29C35.3368 57.4567 35.4952 57.6583 35.5952 57.895C35.6952 58.1317 35.7452 58.3983 35.7452 58.695C35.7452 58.865 35.7202 59.0283 35.6702 59.185C35.6202 59.3383 35.5418 59.4833 35.4352 59.62C35.3318 59.7533 35.1985 59.875 35.0352 59.985C34.8752 60.095 34.6835 60.1883 34.4602 60.265C35.4535 60.4883 35.9502 61.025 35.9502 61.875C35.9502 62.1817 35.8918 62.465 35.7752 62.725C35.6585 62.985 35.4885 63.21 35.2652 63.4C35.0418 63.5867 34.7668 63.7333 34.4402 63.84C34.1135 63.9467 33.7402 64 33.3202 64H30.5902V56.77H33.0802ZM39.7722 57.84V59.845H42.3022V60.88H39.7722V62.925H42.9822V64H38.4222V56.77H42.9822V57.84H39.7722ZM51.5191 56.77V64H50.1691V60.84H46.7741V64H45.4241V56.77H46.7741V59.88H50.1691V56.77H51.5191ZM60.4742 56.77V64H59.1242V59.47C59.1242 59.3 59.1276 59.1217 59.1342 58.935C59.1442 58.7483 59.1642 58.55 59.1942 58.34C59.1276 58.5267 59.0542 58.7 58.9742 58.86C58.8976 59.0167 58.8226 59.155 58.7492 59.275L55.9842 63.585C55.9542 63.635 55.9176 63.685 55.8742 63.735C55.8342 63.785 55.7892 63.83 55.7392 63.87C55.6892 63.9067 55.6342 63.9383 55.5742 63.965C55.5142 63.9883 55.4526 64 55.3892 64H54.3792V56.77H55.7292V61.3C55.7292 61.47 55.7242 61.65 55.7142 61.84C55.7076 62.0267 55.6892 62.225 55.6592 62.435C55.7259 62.2483 55.7976 62.075 55.8742 61.915C55.9542 61.755 56.0326 61.615 56.1092 61.495L58.8692 57.185C58.8992 57.135 58.9342 57.085 58.9742 57.035C59.0176 56.985 59.0642 56.9417 59.1142 56.905C59.1642 56.865 59.2176 56.8333 59.2742 56.81C59.3342 56.7833 59.3976 56.77 59.4642 56.77H60.4742ZM65.6843 60.405C65.931 60.405 66.146 60.375 66.3293 60.315C66.5126 60.2517 66.6643 60.1633 66.7843 60.05C66.9076 59.9333 66.9993 59.7933 67.0593 59.63C67.1193 59.4633 67.1493 59.2783 67.1493 59.075C67.1493 58.8817 67.1193 58.7067 67.0593 58.55C66.9993 58.3933 66.9093 58.26 66.7893 58.15C66.6693 58.04 66.5176 57.9567 66.3343 57.9C66.151 57.84 65.9343 57.81 65.6843 57.81H64.6793V60.405H65.6843ZM65.6843 56.77C66.1676 56.77 66.586 56.8267 66.9393 56.94C67.2926 57.0533 67.5843 57.2117 67.8143 57.415C68.0443 57.6183 68.2143 57.8617 68.3243 58.145C68.4376 58.4283 68.4943 58.7383 68.4943 59.075C68.4943 59.425 68.436 59.7467 68.3193 60.04C68.2026 60.33 68.0276 60.58 67.7943 60.79C67.561 61 67.2676 61.1633 66.9143 61.28C66.5643 61.3967 66.1543 61.455 65.6843 61.455H64.6793V64H63.3343V56.77H65.6843ZM73.2957 62.95C73.5457 62.95 73.754 62.9233 73.9207 62.87C74.0907 62.8133 74.2274 62.7367 74.3307 62.64C74.434 62.5433 74.5074 62.43 74.5507 62.3C74.594 62.17 74.6157 62.03 74.6157 61.88C74.6157 61.7167 74.594 61.5683 74.5507 61.435C74.5074 61.3017 74.434 61.19 74.3307 61.1C74.2274 61.0067 74.0924 60.935 73.9257 60.885C73.759 60.835 73.5507 60.81 73.3007 60.81H72.1207V62.95H73.2957ZM73.3007 59.76C73.7707 59.76 74.1724 59.8117 74.5057 59.915C74.8424 60.0183 75.1157 60.16 75.3257 60.34C75.539 60.5167 75.6957 60.7267 75.7957 60.97C75.8957 61.21 75.9457 61.4683 75.9457 61.745C75.9457 62.085 75.8857 62.3933 75.7657 62.67C75.649 62.9467 75.4774 63.185 75.2507 63.385C75.024 63.5817 74.7457 63.7333 74.4157 63.84C74.089 63.9467 73.7157 64 73.2957 64H70.7757V56.77H72.1207V59.76H73.3007ZM78.3507 64H77.0007V56.77H78.3507V64ZM89.8618 62.295C89.9351 62.295 90.0001 62.3233 90.0568 62.38L90.5868 62.955C90.2935 63.3183 89.9318 63.5967 89.5018 63.79C89.0751 63.9833 88.5618 64.08 87.9618 64.08C87.4251 64.08 86.9418 63.9883 86.5118 63.805C86.0851 63.6217 85.7201 63.3667 85.4168 63.04C85.1135 62.7133 84.8801 62.3233 84.7168 61.87C84.5568 61.4167 84.4768 60.9217 84.4768 60.385C84.4768 59.8417 84.5635 59.345 84.7368 58.895C84.9101 58.4417 85.1535 58.0517 85.4668 57.725C85.7835 57.3983 86.1601 57.145 86.5968 56.965C87.0335 56.7817 87.5168 56.69 88.0468 56.69C88.5735 56.69 89.0401 56.7767 89.4468 56.95C89.8568 57.1233 90.2051 57.35 90.4918 57.63L90.0418 58.255C90.0151 58.295 89.9801 58.33 89.9368 58.36C89.8968 58.39 89.8401 58.405 89.7668 58.405C89.7168 58.405 89.6651 58.3917 89.6118 58.365C89.5585 58.335 89.5001 58.3 89.4368 58.26C89.3735 58.2167 89.3001 58.17 89.2168 58.12C89.1335 58.07 89.0368 58.025 88.9268 57.985C88.8168 57.9417 88.6885 57.9067 88.5418 57.88C88.3985 57.85 88.2318 57.835 88.0418 57.835C87.7185 57.835 87.4218 57.8933 87.1518 58.01C86.8851 58.1233 86.6551 58.29 86.4618 58.51C86.2685 58.7267 86.1185 58.9933 86.0118 59.31C85.9051 59.6233 85.8518 59.9817 85.8518 60.385C85.8518 60.7917 85.9085 61.1533 86.0218 61.47C86.1385 61.7867 86.2951 62.0533 86.4918 62.27C86.6885 62.4867 86.9201 62.6533 87.1868 62.77C87.4535 62.8833 87.7401 62.94 88.0468 62.94C88.2301 62.94 88.3951 62.93 88.5418 62.91C88.6918 62.89 88.8285 62.8583 88.9518 62.815C89.0785 62.7717 89.1968 62.7167 89.3068 62.65C89.4201 62.58 89.5318 62.495 89.6418 62.395C89.6751 62.365 89.7101 62.3417 89.7468 62.325C89.7835 62.305 89.8218 62.295 89.8618 62.295ZM102.27 64H100.915V57.805H98.9398C98.8931 58.7117 98.8264 59.4967 98.7398 60.16C98.6564 60.82 98.5548 61.3833 98.4348 61.85C98.3181 62.3133 98.1831 62.69 98.0298 62.98C97.8798 63.27 97.7148 63.4967 97.5348 63.66C97.3548 63.82 97.1614 63.93 96.9548 63.99C96.7481 64.0467 96.5314 64.075 96.3048 64.075C96.0648 64.075 95.8898 64.0533 95.7798 64.01C95.6698 63.9667 95.6148 63.9033 95.6148 63.82V62.98H95.9998C96.0864 62.98 96.1731 62.97 96.2598 62.95C96.3498 62.93 96.4381 62.8883 96.5248 62.825C96.6148 62.7583 96.7014 62.6633 96.7848 62.54C96.8714 62.4167 96.9531 62.2517 97.0298 62.045C97.1098 61.835 97.1831 61.5783 97.2498 61.275C97.3198 60.9717 97.3814 60.6067 97.4348 60.18C97.4914 59.7533 97.5398 59.26 97.5798 58.7C97.6231 58.1367 97.6548 57.4933 97.6748 56.77H102.27V64ZM112.026 60.385C112.026 60.915 111.938 61.4067 111.761 61.86C111.588 62.31 111.341 62.7 111.021 63.03C110.701 63.36 110.316 63.6183 109.866 63.805C109.416 63.9883 108.916 64.08 108.366 64.08C107.82 64.08 107.321 63.9883 106.871 63.805C106.421 63.6183 106.035 63.36 105.711 63.03C105.391 62.7 105.143 62.31 104.966 61.86C104.79 61.4067 104.701 60.915 104.701 60.385C104.701 59.855 104.79 59.365 104.966 58.915C105.143 58.4617 105.391 58.07 105.711 57.74C106.035 57.41 106.421 57.1533 106.871 56.97C107.321 56.7833 107.82 56.69 108.366 56.69C108.733 56.69 109.078 56.7333 109.401 56.82C109.725 56.9033 110.021 57.0233 110.291 57.18C110.561 57.3333 110.803 57.5217 111.016 57.745C111.233 57.965 111.416 58.2117 111.566 58.485C111.716 58.7583 111.83 59.055 111.906 59.375C111.986 59.695 112.026 60.0317 112.026 60.385ZM110.651 60.385C110.651 59.9883 110.598 59.6333 110.491 59.32C110.385 59.0033 110.233 58.735 110.036 58.515C109.84 58.295 109.6 58.1267 109.316 58.01C109.036 57.8933 108.72 57.835 108.366 57.835C108.013 57.835 107.695 57.8933 107.411 58.01C107.131 58.1267 106.891 58.295 106.691 58.515C106.495 58.735 106.343 59.0033 106.236 59.32C106.13 59.6333 106.076 59.9883 106.076 60.385C106.076 60.7817 106.13 61.1383 106.236 61.455C106.343 61.7683 106.495 62.035 106.691 62.255C106.891 62.4717 107.131 62.6383 107.411 62.755C107.695 62.8717 108.013 62.93 108.366 62.93C108.72 62.93 109.036 62.8717 109.316 62.755C109.6 62.6383 109.84 62.4717 110.036 62.255C110.233 62.035 110.385 61.7683 110.491 61.455C110.598 61.1383 110.651 60.7817 110.651 60.385ZM118.917 57.805H115.807V64H114.457V56.77H118.917V57.805ZM127.729 60.385C127.729 60.915 127.641 61.4067 127.464 61.86C127.291 62.31 127.044 62.7 126.724 63.03C126.404 63.36 126.019 63.6183 125.569 63.805C125.119 63.9883 124.619 64.08 124.069 64.08C123.523 64.08 123.024 63.9883 122.574 63.805C122.124 63.6183 121.738 63.36 121.414 63.03C121.094 62.7 120.846 62.31 120.669 61.86C120.493 61.4067 120.404 60.915 120.404 60.385C120.404 59.855 120.493 59.365 120.669 58.915C120.846 58.4617 121.094 58.07 121.414 57.74C121.738 57.41 122.124 57.1533 122.574 56.97C123.024 56.7833 123.523 56.69 124.069 56.69C124.436 56.69 124.781 56.7333 125.104 56.82C125.428 56.9033 125.724 57.0233 125.994 57.18C126.264 57.3333 126.506 57.5217 126.719 57.745C126.936 57.965 127.119 58.2117 127.269 58.485C127.419 58.7583 127.533 59.055 127.609 59.375C127.689 59.695 127.729 60.0317 127.729 60.385ZM126.354 60.385C126.354 59.9883 126.301 59.6333 126.194 59.32C126.088 59.0033 125.936 58.735 125.739 58.515C125.543 58.295 125.303 58.1267 125.019 58.01C124.739 57.8933 124.423 57.835 124.069 57.835C123.716 57.835 123.398 57.8933 123.114 58.01C122.834 58.1267 122.594 58.295 122.394 58.515C122.198 58.735 122.046 59.0033 121.939 59.32C121.833 59.6333 121.779 59.9883 121.779 60.385C121.779 60.7817 121.833 61.1383 121.939 61.455C122.046 61.7683 122.198 62.035 122.394 62.255C122.594 62.4717 122.834 62.6383 123.114 62.755C123.398 62.8717 123.716 62.93 124.069 62.93C124.423 62.93 124.739 62.8717 125.019 62.755C125.303 62.6383 125.543 62.4717 125.739 62.255C125.936 62.035 126.088 61.7683 126.194 61.455C126.301 61.1383 126.354 60.7817 126.354 60.385Z" fill="#262626"/>
</svg>
