<svg width="224" height="101" viewBox="0 0 224 101" fill="none" xmlns="http://www.w3.org/2000/svg">
<rect y="59.0137" width="223.449" height="41.9676" rx="5.29138" fill="#D3BBA1"/>
<path d="M11.9841 75.9177C12.2841 75.9177 12.5341 75.8857 12.7341 75.8217C12.9381 75.7537 13.1021 75.6617 13.2261 75.5457C13.3501 75.4297 13.4381 75.2937 13.4901 75.1377C13.5421 74.9817 13.5681 74.8137 13.5681 74.6337C13.5681 74.4377 13.5421 74.2597 13.4901 74.0997C13.4381 73.9397 13.3501 73.8057 13.2261 73.6977C13.1021 73.5857 12.9401 73.4997 12.7401 73.4397C12.5401 73.3797 12.2901 73.3497 11.9901 73.3497H10.5741V75.9177H11.9841ZM11.9901 72.0897C12.5541 72.0897 13.0361 72.1517 13.4361 72.2757C13.8401 72.3997 14.1681 72.5697 14.4201 72.7857C14.6761 72.9977 14.8641 73.2497 14.9841 73.5417C15.1041 73.8297 15.1641 74.1397 15.1641 74.4717C15.1641 74.8797 15.0921 75.2497 14.9481 75.5817C14.8081 75.9137 14.6021 76.1997 14.3301 76.4397C14.0581 76.6757 13.7241 76.8577 13.3281 76.9857C12.9361 77.1137 12.4881 77.1777 11.9841 77.1777H8.96014V68.5017H14.8461V69.7497H10.5741V72.0897H11.9901ZM25.3327 68.5017V77.1777H23.7127V71.7417C23.7127 71.5377 23.7167 71.3237 23.7247 71.0997C23.7367 70.8757 23.7607 70.6377 23.7967 70.3857C23.7167 70.6097 23.6287 70.8177 23.5327 71.0097C23.4407 71.1977 23.3507 71.3637 23.2627 71.5077L19.9447 76.6797C19.9087 76.7397 19.8647 76.7997 19.8127 76.8597C19.7647 76.9197 19.7107 76.9737 19.6507 77.0217C19.5907 77.0657 19.5247 77.1037 19.4527 77.1357C19.3807 77.1637 19.3067 77.1777 19.2307 77.1777H18.0187V68.5017H19.6387V73.9377C19.6387 74.1417 19.6327 74.3577 19.6207 74.5857C19.6127 74.8097 19.5907 75.0477 19.5547 75.2997C19.6347 75.0757 19.7207 74.8677 19.8127 74.6757C19.9087 74.4837 20.0027 74.3157 20.0947 74.1717L23.4067 68.9997C23.4427 68.9397 23.4847 68.8797 23.5327 68.8197C23.5847 68.7597 23.6407 68.7077 23.7007 68.6637C23.7607 68.6157 23.8247 68.5777 23.8927 68.5497C23.9647 68.5177 24.0407 68.5017 24.1207 68.5017H25.3327ZM28.2668 69.3177C28.6028 69.0297 29.0008 68.8057 29.4608 68.6457C29.9248 68.4857 30.4388 68.4057 31.0028 68.4057C31.4708 68.4057 31.8928 68.4617 32.2688 68.5737C32.6488 68.6857 32.9708 68.8437 33.2348 69.0477C33.4988 69.2477 33.7008 69.4877 33.8408 69.7677C33.9848 70.0437 34.0568 70.3477 34.0568 70.6797C34.0568 71.0877 33.9628 71.4577 33.7748 71.7897C33.5908 72.1177 33.3108 72.3837 32.9348 72.5877C33.1348 72.6837 33.3168 72.7977 33.4808 72.9297C33.6488 73.0577 33.7908 73.2017 33.9068 73.3617C34.0268 73.5177 34.1188 73.6877 34.1828 73.8717C34.2508 74.0557 34.2848 74.2517 34.2848 74.4597C34.2848 74.8517 34.2108 75.2177 34.0628 75.5577C33.9188 75.8977 33.7068 76.1937 33.4268 76.4457C33.1508 76.6977 32.8108 76.8977 32.4068 77.0457C32.0028 77.1897 31.5408 77.2617 31.0208 77.2617C30.7168 77.2617 30.4188 77.2337 30.1268 77.1777C29.8388 77.1257 29.5628 77.0497 29.2988 76.9497C29.0348 76.8497 28.7868 76.7297 28.5548 76.5897C28.3228 76.4497 28.1168 76.2937 27.9368 76.1217L28.4108 75.3477C28.4548 75.2917 28.5068 75.2457 28.5668 75.2097C28.6308 75.1697 28.7008 75.1497 28.7768 75.1497C28.8808 75.1497 28.9948 75.1917 29.1188 75.2757C29.2428 75.3557 29.3928 75.4457 29.5688 75.5457C29.7448 75.6457 29.9528 75.7377 30.1928 75.8217C30.4368 75.9017 30.7288 75.9417 31.0688 75.9417C31.6088 75.9417 32.0268 75.8257 32.3228 75.5937C32.6188 75.3617 32.7668 75.0057 32.7668 74.5257C32.7668 74.3297 32.7268 74.1537 32.6468 73.9977C32.5668 73.8417 32.4528 73.7097 32.3048 73.6017C32.1568 73.4937 31.9768 73.4117 31.7648 73.3557C31.5568 73.2957 31.3248 73.2657 31.0688 73.2657H29.8448L29.8388 71.9697H30.9548C31.4548 71.9697 31.8448 71.8717 32.1248 71.6757C32.4088 71.4757 32.5508 71.1877 32.5508 70.8117C32.5508 70.4797 32.4168 70.2157 32.1488 70.0197C31.8848 69.8197 31.5008 69.7197 30.9968 69.7197C30.7048 69.7197 30.4528 69.7517 30.2408 69.8157C30.0328 69.8797 29.8508 69.9497 29.6948 70.0257C29.5428 70.0977 29.4128 70.1657 29.3048 70.2297C29.2008 70.2937 29.1068 70.3257 29.0228 70.3257C28.9428 70.3257 28.8748 70.3057 28.8188 70.2657C28.7628 70.2257 28.7108 70.1657 28.6628 70.0857L28.2668 69.3177ZM44.5515 68.5017V77.1777H42.9315V73.3857H38.8575V77.1777H37.2375V68.5017H38.8575V72.2337H42.9315V68.5017H44.5515ZM49.6036 69.7857V72.1917H52.6396V73.4337H49.6036V75.8877H53.4556V77.1777H47.9836V68.5017H53.4556V69.7857H49.6036ZM62.1564 75.1317C62.2444 75.1317 62.3224 75.1657 62.3904 75.2337L63.0264 75.9237C62.6744 76.3597 62.2404 76.6937 61.7244 76.9257C61.2124 77.1577 60.5964 77.2737 59.8764 77.2737C59.2324 77.2737 58.6524 77.1637 58.1364 76.9437C57.6244 76.7237 57.1864 76.4177 56.8224 76.0257C56.4584 75.6337 56.1784 75.1657 55.9824 74.6217C55.7904 74.0777 55.6944 73.4837 55.6944 72.8397C55.6944 72.1877 55.7984 71.5917 56.0064 71.0517C56.2144 70.5077 56.5064 70.0397 56.8824 69.6477C57.2624 69.2557 57.7144 68.9517 58.2384 68.7357C58.7624 68.5157 59.3424 68.4057 59.9784 68.4057C60.6104 68.4057 61.1704 68.5097 61.6584 68.7177C62.1504 68.9257 62.5684 69.1977 62.9124 69.5337L62.3724 70.2837C62.3404 70.3317 62.2984 70.3737 62.2464 70.4097C62.1984 70.4457 62.1304 70.4637 62.0424 70.4637C61.9824 70.4637 61.9204 70.4477 61.8564 70.4157C61.7924 70.3797 61.7224 70.3377 61.6464 70.2897C61.5704 70.2377 61.4824 70.1817 61.3824 70.1217C61.2824 70.0617 61.1664 70.0077 61.0344 69.9597C60.9024 69.9077 60.7484 69.8657 60.5724 69.8337C60.4004 69.7977 60.2004 69.7797 59.9724 69.7797C59.5844 69.7797 59.2284 69.8497 58.9044 69.9897C58.5844 70.1257 58.3084 70.3257 58.0764 70.5897C57.8444 70.8497 57.6644 71.1697 57.5364 71.5497C57.4084 71.9257 57.3444 72.3557 57.3444 72.8397C57.3444 73.3277 57.4124 73.7617 57.5484 74.1417C57.6884 74.5217 57.8764 74.8417 58.1124 75.1017C58.3484 75.3617 58.6264 75.5617 58.9464 75.7017C59.2664 75.8377 59.6104 75.9057 59.9784 75.9057C60.1984 75.9057 60.3964 75.8937 60.5724 75.8697C60.7524 75.8457 60.9164 75.8077 61.0644 75.7557C61.2164 75.7037 61.3584 75.6377 61.4904 75.5577C61.6264 75.4737 61.7604 75.3717 61.8924 75.2517C61.9324 75.2157 61.9744 75.1877 62.0184 75.1677C62.0624 75.1437 62.1084 75.1317 62.1564 75.1317ZM77.064 77.1777H75.438V69.7437H71.67V77.1777H70.05V68.5017H77.064V77.1777ZM88.7654 72.8397C88.7654 73.4757 88.6594 74.0657 88.4474 74.6097C88.2394 75.1497 87.9434 75.6177 87.5594 76.0137C87.1754 76.4097 86.7134 76.7197 86.1734 76.9437C85.6334 77.1637 85.0334 77.2737 84.3734 77.2737C83.7174 77.2737 83.1194 77.1637 82.5794 76.9437C82.0394 76.7197 81.5754 76.4097 81.1874 76.0137C80.8034 75.6177 80.5054 75.1497 80.2934 74.6097C80.0814 74.0657 79.9754 73.4757 79.9754 72.8397C79.9754 72.2037 80.0814 71.6157 80.2934 71.0757C80.5054 70.5317 80.8034 70.0617 81.1874 69.6657C81.5754 69.2697 82.0394 68.9617 82.5794 68.7417C83.1194 68.5177 83.7174 68.4057 84.3734 68.4057C84.8134 68.4057 85.2274 68.4577 85.6154 68.5617C86.0034 68.6617 86.3594 68.8057 86.6834 68.9937C87.0074 69.1777 87.2974 69.4037 87.5534 69.6717C87.8134 69.9357 88.0334 70.2317 88.2134 70.5597C88.3934 70.8877 88.5294 71.2437 88.6214 71.6277C88.7174 72.0117 88.7654 72.4157 88.7654 72.8397ZM87.1154 72.8397C87.1154 72.3637 87.0514 71.9377 86.9234 71.5617C86.7954 71.1817 86.6134 70.8597 86.3774 70.5957C86.1414 70.3317 85.8534 70.1297 85.5134 69.9897C85.1774 69.8497 84.7974 69.7797 84.3734 69.7797C83.9494 69.7797 83.5674 69.8497 83.2274 69.9897C82.8914 70.1297 82.6034 70.3317 82.3634 70.5957C82.1274 70.8597 81.9454 71.1817 81.8174 71.5617C81.6894 71.9377 81.6254 72.3637 81.6254 72.8397C81.6254 73.3157 81.6894 73.7437 81.8174 74.1237C81.9454 74.4997 82.1274 74.8197 82.3634 75.0837C82.6034 75.3437 82.8914 75.5437 83.2274 75.6837C83.5674 75.8237 83.9494 75.8937 84.3734 75.8937C84.7974 75.8937 85.1774 75.8237 85.5134 75.6837C85.8534 75.5437 86.1414 75.3437 86.3774 75.0837C86.6134 74.8197 86.7954 74.4997 86.9234 74.1237C87.0514 73.7437 87.1154 73.3157 87.1154 72.8397ZM96.8621 75.9357V69.7437H94.4921C94.4441 70.5957 94.3781 71.3517 94.2941 72.0117C94.2141 72.6717 94.1201 73.2517 94.0121 73.7517C93.9041 74.2517 93.7841 74.6797 93.6521 75.0357C93.5201 75.3917 93.3781 75.6917 93.2261 75.9357H96.8621ZM99.8321 75.9357V78.7797C99.8321 78.9197 99.7841 79.0317 99.6881 79.1157C99.5961 79.1997 99.4741 79.2417 99.3221 79.2417H98.3501V77.1777H91.9781V78.7797C91.9781 78.9197 91.9301 79.0317 91.8341 79.1157C91.7421 79.1997 91.6201 79.2417 91.4681 79.2417H90.4961V75.9357H91.4441C91.5561 75.8757 91.6661 75.7797 91.7741 75.6477C91.8861 75.5157 91.9941 75.3297 92.0981 75.0897C92.2021 74.8497 92.3001 74.5457 92.3921 74.1777C92.4881 73.8097 92.5741 73.3617 92.6501 72.8337C92.7261 72.3017 92.7901 71.6797 92.8421 70.9677C92.8981 70.2557 92.9401 69.4337 92.9681 68.5017H98.4821V75.9357H99.8321ZM107.194 73.9017L106.138 71.0157C106.086 70.8877 106.032 70.7357 105.976 70.5597C105.92 70.3837 105.864 70.1937 105.808 69.9897C105.756 70.1937 105.702 70.3857 105.646 70.5657C105.59 70.7417 105.536 70.8957 105.484 71.0277L104.434 73.9017H107.194ZM110.044 77.1777H108.796C108.656 77.1777 108.542 77.1437 108.454 77.0757C108.366 77.0037 108.3 76.9157 108.256 76.8117L107.608 75.0417H104.014L103.366 76.8117C103.334 76.9037 103.272 76.9877 103.18 77.0637C103.088 77.1397 102.972 77.1777 102.832 77.1777H101.578L104.986 68.5017H106.636L110.044 77.1777ZM115.245 72.8637C115.541 72.8637 115.799 72.8277 116.019 72.7557C116.239 72.6797 116.421 72.5737 116.565 72.4377C116.713 72.2977 116.823 72.1297 116.895 71.9337C116.967 71.7337 117.003 71.5117 117.003 71.2677C117.003 71.0357 116.967 70.8257 116.895 70.6377C116.823 70.4497 116.715 70.2897 116.571 70.1577C116.427 70.0257 116.245 69.9257 116.025 69.8577C115.805 69.7857 115.545 69.7497 115.245 69.7497H114.039V72.8637H115.245ZM115.245 68.5017C115.825 68.5017 116.327 68.5697 116.751 68.7057C117.175 68.8417 117.525 69.0317 117.801 69.2757C118.077 69.5197 118.281 69.8117 118.413 70.1517C118.549 70.4917 118.617 70.8637 118.617 71.2677C118.617 71.6877 118.547 72.0737 118.407 72.4257C118.267 72.7737 118.057 73.0737 117.777 73.3257C117.497 73.5777 117.145 73.7737 116.721 73.9137C116.301 74.0537 115.809 74.1237 115.245 74.1237H114.039V77.1777H112.425V68.5017H115.245ZM128.717 77.1777H127.253C127.101 77.1777 126.973 77.1377 126.869 77.0577C126.769 76.9777 126.675 76.8597 126.587 76.7037L124.739 73.7877C124.691 73.7037 124.639 73.6357 124.583 73.5837C124.531 73.5277 124.473 73.4837 124.409 73.4517C124.349 73.4157 124.279 73.3917 124.199 73.3797C124.123 73.3677 124.035 73.3617 123.935 73.3617H122.969V77.1777H121.355V68.5017H122.969V72.1377H123.785C123.949 72.1377 124.091 72.1097 124.211 72.0537C124.331 71.9977 124.443 71.8937 124.547 71.7417L126.449 68.9337C126.529 68.8057 126.623 68.7017 126.731 68.6217C126.839 68.5417 126.969 68.5017 127.121 68.5017H128.501L126.143 71.9817C126.043 72.1337 125.927 72.2597 125.795 72.3597C125.663 72.4597 125.517 72.5377 125.357 72.5937C125.597 72.6617 125.799 72.7697 125.963 72.9177C126.131 73.0617 126.291 73.2617 126.443 73.5177L128.717 77.1777ZM138.524 68.5017V77.1777H136.904V71.7417C136.904 71.5377 136.908 71.3237 136.916 71.0997C136.928 70.8757 136.952 70.6377 136.988 70.3857C136.908 70.6097 136.82 70.8177 136.724 71.0097C136.632 71.1977 136.542 71.3637 136.454 71.5077L133.136 76.6797C133.1 76.7397 133.056 76.7997 133.004 76.8597C132.956 76.9197 132.902 76.9737 132.842 77.0217C132.782 77.0657 132.716 77.1037 132.644 77.1357C132.572 77.1637 132.498 77.1777 132.422 77.1777H131.21V68.5017H132.83V73.9377C132.83 74.1417 132.824 74.3577 132.812 74.5857C132.804 74.8097 132.782 75.0477 132.746 75.2997C132.826 75.0757 132.912 74.8677 133.004 74.6757C133.1 74.4837 133.194 74.3157 133.286 74.1717L136.598 68.9997C136.634 68.9397 136.676 68.8797 136.724 68.8197C136.776 68.7597 136.832 68.7077 136.892 68.6637C136.952 68.6157 137.016 68.5777 137.084 68.5497C137.156 68.5177 137.232 68.5017 137.312 68.5017H138.524ZM146.122 73.0557H154.264V74.1057H146.122V73.0557ZM171.274 68.5017V77.1777H169.852V71.5737C169.852 71.3497 169.864 71.1077 169.888 70.8477L167.266 75.7737C167.142 76.0097 166.952 76.1277 166.696 76.1277H166.468C166.212 76.1277 166.022 76.0097 165.898 75.7737L163.246 70.8297C163.258 70.9617 163.268 71.0917 163.276 71.2197C163.284 71.3477 163.288 71.4657 163.288 71.5737V77.1777H161.866V68.5017H163.084C163.156 68.5017 163.218 68.5037 163.27 68.5077C163.322 68.5117 163.368 68.5217 163.408 68.5377C163.452 68.5537 163.49 68.5797 163.522 68.6157C163.558 68.6517 163.592 68.6997 163.624 68.7597L166.222 73.5777C166.29 73.7057 166.352 73.8377 166.408 73.9737C166.468 74.1097 166.526 74.2497 166.582 74.3937C166.638 74.2457 166.696 74.1037 166.756 73.9677C166.816 73.8277 166.88 73.6937 166.948 73.5657L169.51 68.7597C169.542 68.6997 169.576 68.6517 169.612 68.6157C169.648 68.5797 169.686 68.5537 169.726 68.5377C169.77 68.5217 169.818 68.5117 169.87 68.5077C169.922 68.5037 169.984 68.5017 170.056 68.5017H171.274ZM176.33 69.7857V72.1917H179.366V73.4337H176.33V75.8877H180.182V77.1777H174.71V68.5017H180.182V69.7857H176.33ZM185.932 72.8637C186.228 72.8637 186.486 72.8277 186.706 72.7557C186.926 72.6797 187.108 72.5737 187.252 72.4377C187.4 72.2977 187.51 72.1297 187.582 71.9337C187.654 71.7337 187.69 71.5117 187.69 71.2677C187.69 71.0357 187.654 70.8257 187.582 70.6377C187.51 70.4497 187.402 70.2897 187.258 70.1577C187.114 70.0257 186.932 69.9257 186.712 69.8577C186.492 69.7857 186.232 69.7497 185.932 69.7497H184.726V72.8637H185.932ZM185.932 68.5017C186.512 68.5017 187.014 68.5697 187.438 68.7057C187.862 68.8417 188.212 69.0317 188.488 69.2757C188.764 69.5197 188.968 69.8117 189.1 70.1517C189.236 70.4917 189.304 70.8637 189.304 71.2677C189.304 71.6877 189.234 72.0737 189.094 72.4257C188.954 72.7737 188.744 73.0737 188.464 73.3257C188.184 73.5777 187.832 73.7737 187.408 73.9137C186.988 74.0537 186.496 74.1237 185.932 74.1237H184.726V77.1777H183.112V68.5017H185.932ZM198.222 68.5017V77.1777H196.596V73.7037C196.128 73.8197 195.678 73.9057 195.246 73.9617C194.818 74.0177 194.416 74.0357 194.04 74.0157C193.668 73.9957 193.328 73.9337 193.02 73.8297C192.712 73.7217 192.448 73.5617 192.228 73.3497C192.012 73.1377 191.844 72.8697 191.724 72.5457C191.604 72.2177 191.544 71.8237 191.544 71.3637V68.5017H193.17V71.3637C193.17 71.6997 193.228 71.9797 193.344 72.2037C193.46 72.4237 193.65 72.5857 193.914 72.6897C194.182 72.7937 194.534 72.8357 194.97 72.8157C195.41 72.7957 195.952 72.7077 196.596 72.5517V68.5017H198.222ZM205.818 73.0557H213.96V74.1057H205.818V73.0557ZM49.9338 92.1317C50.0218 92.1317 50.0998 92.1657 50.1678 92.2337L50.8038 92.9237C50.4518 93.3597 50.0178 93.6937 49.5018 93.9257C48.9898 94.1577 48.3738 94.2737 47.6538 94.2737C47.0098 94.2737 46.4298 94.1637 45.9138 93.9437C45.4018 93.7237 44.9638 93.4177 44.5998 93.0257C44.2358 92.6337 43.9558 92.1657 43.7598 91.6217C43.5678 91.0777 43.4718 90.4837 43.4718 89.8397C43.4718 89.1877 43.5758 88.5917 43.7838 88.0517C43.9918 87.5077 44.2838 87.0397 44.6598 86.6477C45.0398 86.2557 45.4918 85.9517 46.0158 85.7357C46.5398 85.5157 47.1198 85.4057 47.7558 85.4057C48.3878 85.4057 48.9478 85.5097 49.4358 85.7177C49.9278 85.9257 50.3458 86.1977 50.6898 86.5337L50.1498 87.2837C50.1178 87.3317 50.0758 87.3737 50.0238 87.4097C49.9758 87.4457 49.9078 87.4637 49.8198 87.4637C49.7598 87.4637 49.6978 87.4477 49.6338 87.4157C49.5698 87.3797 49.4998 87.3377 49.4238 87.2897C49.3478 87.2377 49.2598 87.1817 49.1598 87.1217C49.0598 87.0617 48.9438 87.0077 48.8118 86.9597C48.6798 86.9077 48.5258 86.8657 48.3498 86.8337C48.1778 86.7977 47.9778 86.7797 47.7498 86.7797C47.3618 86.7797 47.0058 86.8497 46.6818 86.9897C46.3618 87.1257 46.0858 87.3257 45.8538 87.5897C45.6218 87.8497 45.4418 88.1697 45.3138 88.5497C45.1858 88.9257 45.1218 89.3557 45.1218 89.8397C45.1218 90.3277 45.1898 90.7617 45.3258 91.1417C45.4658 91.5217 45.6538 91.8417 45.8898 92.1017C46.1258 92.3617 46.4038 92.5617 46.7238 92.7017C47.0438 92.8377 47.3878 92.9057 47.7558 92.9057C47.9758 92.9057 48.1738 92.8937 48.3498 92.8697C48.5298 92.8457 48.6938 92.8077 48.8418 92.7557C48.9938 92.7037 49.1358 92.6377 49.2678 92.5577C49.4038 92.4737 49.5378 92.3717 49.6698 92.2517C49.7098 92.2157 49.7518 92.1877 49.7958 92.1677C49.8398 92.1437 49.8858 92.1317 49.9338 92.1317ZM60.2914 85.5017L56.7874 92.9717C56.6634 93.2317 56.5314 93.4457 56.3914 93.6137C56.2514 93.7817 56.0994 93.9137 55.9354 94.0097C55.7754 94.1057 55.6014 94.1717 55.4134 94.2077C55.2294 94.2477 55.0314 94.2677 54.8194 94.2677C54.5314 94.2677 54.3214 94.2417 54.1894 94.1897C54.0574 94.1377 53.9914 94.0617 53.9914 93.9617V92.9537H54.4594C54.5474 92.9537 54.6374 92.9457 54.7294 92.9297C54.8214 92.9137 54.9114 92.8817 54.9994 92.8337C55.0914 92.7857 55.1794 92.7177 55.2634 92.6297C55.3474 92.5417 55.4254 92.4257 55.4974 92.2817L55.8394 91.5857L52.3594 85.5017H53.8714C54.0114 85.5017 54.1234 85.5357 54.2074 85.6037C54.2914 85.6717 54.3614 85.7577 54.4174 85.8617L56.1034 89.0417C56.1954 89.2177 56.2774 89.3917 56.3494 89.5637C56.4254 89.7357 56.4914 89.9117 56.5474 90.0917C56.6514 89.7317 56.7854 89.3817 56.9494 89.0417L58.4194 85.8617C58.4634 85.7737 58.5294 85.6917 58.6174 85.6157C58.7054 85.5397 58.8174 85.5017 58.9534 85.5017H60.2914ZM65.8897 92.9177C66.1897 92.9177 66.4417 92.8817 66.6457 92.8097C66.8497 92.7377 67.0117 92.6417 67.1317 92.5217C67.2557 92.4017 67.3437 92.2617 67.3957 92.1017C67.4517 91.9417 67.4797 91.7717 67.4797 91.5917C67.4797 91.4037 67.4497 91.2357 67.3897 91.0877C67.3297 90.9357 67.2357 90.8077 67.1077 90.7037C66.9797 90.5957 66.8137 90.5137 66.6097 90.4577C66.4097 90.4017 66.1677 90.3737 65.8837 90.3737H64.2577V92.9177H65.8897ZM64.2577 86.7497V89.2577H65.5417C66.0937 89.2577 66.5097 89.1577 66.7897 88.9577C67.0737 88.7577 67.2157 88.4397 67.2157 88.0037C67.2157 87.5517 67.0877 87.2297 66.8317 87.0377C66.5757 86.8457 66.1757 86.7497 65.6317 86.7497H64.2577ZM65.6317 85.5017C66.1997 85.5017 66.6857 85.5557 67.0897 85.6637C67.4937 85.7717 67.8237 85.9257 68.0797 86.1257C68.3397 86.3257 68.5297 86.5677 68.6497 86.8517C68.7697 87.1357 68.8297 87.4557 68.8297 87.8117C68.8297 88.0157 68.7997 88.2117 68.7397 88.3997C68.6797 88.5837 68.5857 88.7577 68.4577 88.9217C68.3337 89.0817 68.1737 89.2277 67.9777 89.3597C67.7857 89.4917 67.5557 89.6037 67.2877 89.6957C68.4797 89.9637 69.0757 90.6077 69.0757 91.6277C69.0757 91.9957 69.0057 92.3357 68.8657 92.6477C68.7257 92.9597 68.5217 93.2297 68.2537 93.4577C67.9857 93.6817 67.6557 93.8577 67.2637 93.9857C66.8717 94.1137 66.4237 94.1777 65.9197 94.1777H62.6437V85.5017H65.6317ZM73.6622 86.7857V89.1917H76.6982V90.4337H73.6622V92.8877H77.5142V94.1777H72.0422V85.5017H77.5142V86.7857H73.6622ZM87.7585 85.5017V94.1777H86.1385V90.3857H82.0645V94.1777H80.4445V85.5017H82.0645V89.2337H86.1385V85.5017H87.7585ZM98.5046 85.5017V94.1777H96.8846V88.7417C96.8846 88.5377 96.8886 88.3237 96.8966 88.0997C96.9086 87.8757 96.9326 87.6377 96.9686 87.3857C96.8886 87.6097 96.8006 87.8177 96.7046 88.0097C96.6126 88.1977 96.5226 88.3637 96.4346 88.5077L93.1166 93.6797C93.0806 93.7397 93.0366 93.7997 92.9846 93.8597C92.9366 93.9197 92.8826 93.9737 92.8226 94.0217C92.7626 94.0657 92.6966 94.1037 92.6246 94.1357C92.5526 94.1637 92.4786 94.1777 92.4026 94.1777H91.1906V85.5017H92.8106V90.9377C92.8106 91.1417 92.8046 91.3577 92.7926 91.5857C92.7846 91.8097 92.7626 92.0477 92.7266 92.2997C92.8066 92.0757 92.8926 91.8677 92.9846 91.6757C93.0806 91.4837 93.1746 91.3157 93.2666 91.1717L96.5786 85.9997C96.6146 85.9397 96.6566 85.8797 96.7046 85.8197C96.7566 85.7597 96.8126 85.7077 96.8726 85.6637C96.9326 85.6157 96.9966 85.5777 97.0646 85.5497C97.1366 85.5177 97.2126 85.5017 97.2926 85.5017H98.5046ZM104.757 89.8637C105.053 89.8637 105.311 89.8277 105.531 89.7557C105.751 89.6797 105.933 89.5737 106.077 89.4377C106.225 89.2977 106.335 89.1297 106.407 88.9337C106.479 88.7337 106.515 88.5117 106.515 88.2677C106.515 88.0357 106.479 87.8257 106.407 87.6377C106.335 87.4497 106.227 87.2897 106.083 87.1577C105.939 87.0257 105.757 86.9257 105.537 86.8577C105.317 86.7857 105.057 86.7497 104.757 86.7497H103.551V89.8637H104.757ZM104.757 85.5017C105.337 85.5017 105.839 85.5697 106.263 85.7057C106.687 85.8417 107.037 86.0317 107.313 86.2757C107.589 86.5197 107.793 86.8117 107.925 87.1517C108.061 87.4917 108.129 87.8637 108.129 88.2677C108.129 88.6877 108.059 89.0737 107.919 89.4257C107.779 89.7737 107.569 90.0737 107.289 90.3257C107.009 90.5777 106.657 90.7737 106.233 90.9137C105.813 91.0537 105.321 91.1237 104.757 91.1237H103.551V94.1777H101.937V85.5017H104.757ZM113.89 92.9177C114.19 92.9177 114.44 92.8857 114.64 92.8217C114.844 92.7537 115.008 92.6617 115.132 92.5457C115.256 92.4297 115.344 92.2937 115.396 92.1377C115.448 91.9817 115.474 91.8137 115.474 91.6337C115.474 91.4377 115.448 91.2597 115.396 91.0997C115.344 90.9397 115.256 90.8057 115.132 90.6977C115.008 90.5857 114.846 90.4997 114.646 90.4397C114.446 90.3797 114.196 90.3497 113.896 90.3497H112.48V92.9177H113.89ZM113.896 89.0897C114.46 89.0897 114.942 89.1517 115.342 89.2757C115.746 89.3997 116.074 89.5697 116.326 89.7857C116.582 89.9977 116.77 90.2497 116.89 90.5417C117.01 90.8297 117.07 91.1397 117.07 91.4717C117.07 91.8797 116.998 92.2497 116.854 92.5817C116.714 92.9137 116.508 93.1997 116.236 93.4397C115.964 93.6757 115.63 93.8577 115.234 93.9857C114.842 94.1137 114.394 94.1777 113.89 94.1777H110.866V85.5017H112.48V89.0897H113.896ZM119.956 94.1777H118.336V85.5017H119.956V94.1777ZM133.77 92.1317C133.858 92.1317 133.936 92.1657 134.004 92.2337L134.64 92.9237C134.288 93.3597 133.854 93.6937 133.338 93.9257C132.826 94.1577 132.21 94.2737 131.49 94.2737C130.846 94.2737 130.266 94.1637 129.75 93.9437C129.238 93.7237 128.8 93.4177 128.436 93.0257C128.072 92.6337 127.792 92.1657 127.596 91.6217C127.404 91.0777 127.308 90.4837 127.308 89.8397C127.308 89.1877 127.412 88.5917 127.62 88.0517C127.828 87.5077 128.12 87.0397 128.496 86.6477C128.876 86.2557 129.328 85.9517 129.852 85.7357C130.376 85.5157 130.956 85.4057 131.592 85.4057C132.224 85.4057 132.784 85.5097 133.272 85.7177C133.764 85.9257 134.182 86.1977 134.526 86.5337L133.986 87.2837C133.954 87.3317 133.912 87.3737 133.86 87.4097C133.812 87.4457 133.744 87.4637 133.656 87.4637C133.596 87.4637 133.534 87.4477 133.47 87.4157C133.406 87.3797 133.336 87.3377 133.26 87.2897C133.184 87.2377 133.096 87.1817 132.996 87.1217C132.896 87.0617 132.78 87.0077 132.648 86.9597C132.516 86.9077 132.362 86.8657 132.186 86.8337C132.014 86.7977 131.814 86.7797 131.586 86.7797C131.198 86.7797 130.842 86.8497 130.518 86.9897C130.198 87.1257 129.922 87.3257 129.69 87.5897C129.458 87.8497 129.278 88.1697 129.15 88.5497C129.022 88.9257 128.958 89.3557 128.958 89.8397C128.958 90.3277 129.026 90.7617 129.162 91.1417C129.302 91.5217 129.49 91.8417 129.726 92.1017C129.962 92.3617 130.24 92.5617 130.56 92.7017C130.88 92.8377 131.224 92.9057 131.592 92.9057C131.812 92.9057 132.01 92.8937 132.186 92.8697C132.366 92.8457 132.53 92.8077 132.678 92.7557C132.83 92.7037 132.972 92.6377 133.104 92.5577C133.24 92.4737 133.374 92.3717 133.506 92.2517C133.546 92.2157 133.588 92.1877 133.632 92.1677C133.676 92.1437 133.722 92.1317 133.77 92.1317ZM148.659 94.1777H147.033V86.7437H144.663C144.607 87.8317 144.527 88.7737 144.423 89.5697C144.323 90.3617 144.201 91.0377 144.057 91.5977C143.917 92.1537 143.755 92.6057 143.571 92.9537C143.391 93.3017 143.193 93.5737 142.977 93.7697C142.761 93.9617 142.529 94.0937 142.281 94.1657C142.033 94.2337 141.773 94.2677 141.501 94.2677C141.213 94.2677 141.003 94.2417 140.871 94.1897C140.739 94.1377 140.673 94.0617 140.673 93.9617V92.9537H141.135C141.239 92.9537 141.343 92.9417 141.447 92.9177C141.555 92.8937 141.661 92.8437 141.765 92.7677C141.873 92.6877 141.977 92.5737 142.077 92.4257C142.181 92.2777 142.279 92.0797 142.371 91.8317C142.467 91.5797 142.555 91.2717 142.635 90.9077C142.719 90.5437 142.793 90.1057 142.857 89.5937C142.925 89.0817 142.983 88.4897 143.031 87.8177C143.083 87.1417 143.121 86.3697 143.145 85.5017H148.659V94.1777ZM160.367 89.8397C160.367 90.4757 160.261 91.0657 160.049 91.6097C159.841 92.1497 159.545 92.6177 159.161 93.0137C158.777 93.4097 158.315 93.7197 157.775 93.9437C157.235 94.1637 156.635 94.2737 155.975 94.2737C155.319 94.2737 154.721 94.1637 154.181 93.9437C153.641 93.7197 153.177 93.4097 152.789 93.0137C152.405 92.6177 152.107 92.1497 151.895 91.6097C151.683 91.0657 151.577 90.4757 151.577 89.8397C151.577 89.2037 151.683 88.6157 151.895 88.0757C152.107 87.5317 152.405 87.0617 152.789 86.6657C153.177 86.2697 153.641 85.9617 154.181 85.7417C154.721 85.5177 155.319 85.4057 155.975 85.4057C156.415 85.4057 156.829 85.4577 157.217 85.5617C157.605 85.6617 157.961 85.8057 158.285 85.9937C158.609 86.1777 158.899 86.4037 159.155 86.6717C159.415 86.9357 159.635 87.2317 159.815 87.5597C159.995 87.8877 160.131 88.2437 160.223 88.6277C160.319 89.0117 160.367 89.4157 160.367 89.8397ZM158.717 89.8397C158.717 89.3637 158.653 88.9377 158.525 88.5617C158.397 88.1817 158.215 87.8597 157.979 87.5957C157.743 87.3317 157.455 87.1297 157.115 86.9897C156.779 86.8497 156.399 86.7797 155.975 86.7797C155.551 86.7797 155.169 86.8497 154.829 86.9897C154.493 87.1297 154.205 87.3317 153.965 87.5957C153.729 87.8597 153.547 88.1817 153.419 88.5617C153.291 88.9377 153.227 89.3637 153.227 89.8397C153.227 90.3157 153.291 90.7437 153.419 91.1237C153.547 91.4997 153.729 91.8197 153.965 92.0837C154.205 92.3437 154.493 92.5437 154.829 92.6837C155.169 92.8237 155.551 92.8937 155.975 92.8937C156.399 92.8937 156.779 92.8237 157.115 92.6837C157.455 92.5437 157.743 92.3437 157.979 92.0837C158.215 91.8197 158.397 91.4997 158.525 91.1237C158.653 90.7437 158.717 90.3157 158.717 89.8397ZM168.636 86.7437H164.904V94.1777H163.284V85.5017H168.636V86.7437ZM179.211 89.8397C179.211 90.4757 179.105 91.0657 178.893 91.6097C178.685 92.1497 178.389 92.6177 178.005 93.0137C177.621 93.4097 177.159 93.7197 176.619 93.9437C176.079 94.1637 175.479 94.2737 174.819 94.2737C174.163 94.2737 173.565 94.1637 173.025 93.9437C172.485 93.7197 172.021 93.4097 171.633 93.0137C171.249 92.6177 170.951 92.1497 170.739 91.6097C170.527 91.0657 170.421 90.4757 170.421 89.8397C170.421 89.2037 170.527 88.6157 170.739 88.0757C170.951 87.5317 171.249 87.0617 171.633 86.6657C172.021 86.2697 172.485 85.9617 173.025 85.7417C173.565 85.5177 174.163 85.4057 174.819 85.4057C175.259 85.4057 175.673 85.4577 176.061 85.5617C176.449 85.6617 176.805 85.8057 177.129 85.9937C177.453 86.1777 177.743 86.4037 177.999 86.6717C178.259 86.9357 178.479 87.2317 178.659 87.5597C178.839 87.8877 178.975 88.2437 179.067 88.6277C179.163 89.0117 179.211 89.4157 179.211 89.8397ZM177.561 89.8397C177.561 89.3637 177.497 88.9377 177.369 88.5617C177.241 88.1817 177.059 87.8597 176.823 87.5957C176.587 87.3317 176.299 87.1297 175.959 86.9897C175.623 86.8497 175.243 86.7797 174.819 86.7797C174.395 86.7797 174.013 86.8497 173.673 86.9897C173.337 87.1297 173.049 87.3317 172.809 87.5957C172.573 87.8597 172.391 88.1817 172.263 88.5617C172.135 88.9377 172.071 89.3637 172.071 89.8397C172.071 90.3157 172.135 90.7437 172.263 91.1237C172.391 91.4997 172.573 91.8197 172.809 92.0837C173.049 92.3437 173.337 92.5437 173.673 92.6837C174.013 92.8237 174.395 92.8937 174.819 92.8937C175.243 92.8937 175.623 92.8237 175.959 92.6837C176.299 92.5437 176.587 92.3437 176.823 92.0837C177.059 91.8197 177.241 91.4997 177.369 91.1237C177.497 90.7437 177.561 90.3157 177.561 89.8397Z" fill="#262626"/>
<path fill-rule="evenodd" clip-rule="evenodd" d="M84.0335 0.570628C83.9527 0.600735 83.6347 0.664645 83.3267 0.712818C82.6317 0.821205 81.6636 1.60551 81.2955 2.35848C81.0937 2.77095 81.027 3.24761 81.0245 4.29139C81.0197 6.37019 81.458 7.24413 82.858 7.94783C83.407 8.22359 83.6497 8.24316 86.5315 8.24316C89.4101 8.24316 89.6566 8.22345 90.2049 7.94851C91.4164 7.3413 91.8903 6.51443 92.0057 4.80623C92.1414 2.79504 91.5067 1.44758 90.1581 0.884021C89.5568 0.632896 89.1376 0.591566 86.8253 0.556258C85.3707 0.533951 84.1143 0.540383 84.0335 0.570628ZM2.84806 1.37163C1.94997 1.81394 1.41291 2.48808 1.23189 3.40061C1.13167 3.90505 1.09406 10.3752 1.12051 22.5566C1.16415 42.7045 1.10185 41.3107 1.99126 42.0641C2.91521 42.8467 1.59571 42.7986 22.099 42.7986C42.9676 42.7986 41.2799 42.8772 42.2691 41.8576C42.9359 41.1701 42.9981 40.8494 42.9388 38.3996C42.8929 36.498 42.8736 36.3895 42.4866 35.8453C42.2643 35.5328 41.8205 35.1527 41.5006 35.0007C40.9292 34.7292 40.6739 34.7242 27.1112 34.7242C14.7549 34.7242 13.2795 34.7016 13.0728 34.5092C12.8656 34.3163 12.8419 32.7063 12.8419 18.835C12.8419 1.91028 12.8895 2.85306 11.9892 1.96954C11.1079 1.10463 10.854 1.05837 6.99334 1.05837C3.61963 1.05837 3.45947 1.07042 2.84806 1.37163ZM100.755 1.3266C99.7624 1.89016 99.8294 0.450607 99.8294 21.2161C99.8294 39.0864 99.8423 40.03 100.092 40.2401C101.041 41.04 106.07 42.46 109.16 42.8005C109.726 42.8629 110.751 42.9828 111.438 43.0671C115.355 43.5476 116.873 43.5731 120.401 43.218C121.758 43.0813 122.136 43.0179 124.295 42.566C129.444 41.4879 133.651 37.9147 135.058 33.4241C135.832 30.9542 135.896 30.4528 135.895 26.8552C135.894 23.8588 135.855 23.2639 135.576 22.0653C134.173 16.041 130.512 12.3842 124.331 10.833C122.909 10.4762 122.649 10.4548 119.666 10.452C117.717 10.4501 116.225 10.5115 115.772 10.6121C115.368 10.7019 114.343 10.9372 113.495 11.1351C112.646 11.333 111.736 11.5245 111.472 11.5606C110.544 11.688 110.556 11.7495 110.556 6.88995C110.556 0.673815 110.914 1.0581 105.122 1.05892C101.516 1.05933 101.19 1.07931 100.755 1.3266ZM178.074 1.28541C177.39 1.62043 176.814 2.16921 176.516 2.76904C176.255 3.29332 176.244 4.10527 176.241 21.9671C176.238 38.4959 176.263 40.6754 176.465 41.1246C176.755 41.7707 177.195 42.209 177.888 42.5396C178.421 42.7942 178.969 42.8006 197.383 42.7659C216.269 42.7303 216.331 42.7292 216.736 42.4475C216.96 42.2922 217.345 41.9326 217.592 41.6484C218.041 41.1324 218.041 41.1302 218.089 39.1346C218.116 38.0361 218.095 36.9293 218.044 36.6752C217.931 36.1144 217.04 35.1609 216.393 34.9086C216.008 34.7584 213.37 34.7242 202.187 34.7242C189.899 34.7242 188.43 34.7016 188.223 34.5092C188.016 34.3163 187.992 32.7174 187.992 18.9581C187.992 7.86284 187.946 3.4778 187.825 3.10049C187.603 2.41281 186.924 1.66244 186.221 1.32811C185.701 1.08109 185.352 1.05878 182.084 1.06385C179.124 1.06836 178.44 1.10627 178.074 1.28541ZM81.9886 11.9711C81.4365 12.1286 81.0859 12.6701 81.1682 13.2383V27.1855C81.1682 42.7955 81.1321 42.1512 82.031 42.5842C82.4038 42.7638 83.1419 42.7986 86.5778 42.7986C90.563 42.7986 90.6911 42.7901 91.0845 42.5019C91.9278 41.8841 91.8947 42.5079 91.8941 27.2359C91.8937 13.5264 91.8863 13.1588 91.6067 12.7318C91.0632 11.9014 90.8714 11.8698 86.3745 11.8698H82.3438L81.9886 11.9711ZM47.7956 13.9821C46.8099 14.606 46.8581 13.8701 46.8581 28.2921C46.8581 40.6153 46.8733 41.3873 47.1225 41.8124C47.2678 42.0604 47.5984 42.3835 47.8572 42.5303C48.3144 42.7901 48.6938 42.7976 61.4785 42.7976C74.4076 42.7976 74.6377 42.7928 75.1155 42.5216C75.836 42.1125 76.1658 41.3182 76.1658 39.9931C76.1658 38.6679 75.836 37.8736 75.1155 37.4646C74.6414 37.1954 74.3969 37.1885 65.1256 37.1881C56.6823 37.1876 55.5963 37.1636 55.391 36.9726C55.197 36.7918 55.1601 36.3342 55.1601 34.1084C55.1601 31.8826 55.197 31.425 55.391 31.2442C55.5954 31.054 56.5552 31.0292 63.7297 31.0289C71.1585 31.0288 71.8798 31.0087 72.3415 30.7894C73.2557 30.3553 73.4478 29.9542 73.5038 28.363C73.5609 26.7346 73.347 26.1096 72.5841 25.6763C72.1555 25.4329 71.6939 25.4192 63.8767 25.4188C56.5688 25.4182 55.5955 25.3936 55.391 25.2032C55.0473 24.883 55.0473 19.7951 55.391 19.4748C55.5963 19.2838 56.689 19.2598 65.1991 19.2593C74.3103 19.2589 74.7984 19.2463 75.229 19.0017C75.9481 18.5934 76.1725 17.9823 76.1717 16.4337C76.1711 14.9076 75.9581 14.4043 75.1083 13.9219C74.6399 13.6558 74.3419 13.6498 61.4758 13.6494L48.3222 13.6489L47.7956 13.9821ZM142.441 13.9568C142.175 14.1262 141.835 14.4793 141.685 14.7415C141.426 15.196 141.413 15.8285 141.413 28.2215C141.413 42.7263 141.349 41.8175 142.426 42.4879L142.926 42.7986H156.069C170.742 42.7986 169.722 42.8674 170.346 41.8343C170.602 41.4096 170.654 41.0916 170.654 39.9334C170.654 38.3533 170.477 37.8812 169.728 37.4558C169.274 37.198 168.92 37.1885 159.68 37.1881C151.17 37.1876 150.078 37.1636 149.872 36.9726C149.678 36.7918 149.641 36.3342 149.641 34.1084C149.641 31.8826 149.678 31.425 149.872 31.2442C150.077 31.054 151.043 31.0292 158.285 31.0289C165.783 31.0288 166.508 31.0088 166.97 30.7894C167.864 30.3649 168.076 29.9433 168.134 28.4748C168.196 26.8935 167.932 26.0847 167.22 25.6808C166.781 25.4315 166.372 25.4192 158.444 25.4188C150.574 25.4182 150.115 25.4048 149.885 25.1679C149.676 24.9536 149.641 24.5448 149.641 22.3152C149.641 19.9679 149.668 19.6906 149.91 19.4863C150.154 19.2805 151.051 19.2598 159.762 19.2598C170.53 19.2598 170.003 19.3088 170.515 18.2586C170.722 17.8341 170.795 17.3674 170.797 16.4543C170.801 15.023 170.566 14.4444 169.787 13.9595L169.288 13.6489H156.107H142.926L142.441 13.9568ZM118.931 17.4716C121.659 17.7512 123.446 19.0079 124.386 21.3059C124.902 22.5689 125.24 24.7453 125.245 26.8389C125.26 33.0081 123.286 35.8758 118.763 36.2574C117.122 36.3958 112.403 36.2032 111.553 35.963C110.485 35.6614 110.556 36.2872 110.556 27.1987C110.556 22.6942 110.597 18.9093 110.647 18.7882C110.766 18.4989 111.131 18.3258 112.146 18.078C114.813 17.4263 116.777 17.2508 118.931 17.4716Z" fill="white"/>
</svg>
