<svg width="23" height="24" viewBox="0 0 23 24" fill="none" xmlns="http://www.w3.org/2000/svg">
<path fill-rule="evenodd" clip-rule="evenodd" d="M10.06 10.0938C9.9099 10.2439 9.9099 10.4865 10.06 10.6366L12.3634 12.94C12.4382 13.0149 12.5365 13.0525 12.6348 13.0525C12.7331 13.0525 12.8314 13.0149 12.9062 12.94C13.0563 12.7899 13.0563 12.5473 12.9062 12.3972L10.6028 10.0938C10.4527 9.94368 10.2101 9.94368 10.06 10.0938ZM9.06725 11.6294C8.91714 11.4793 8.67452 11.4793 8.52442 11.6294C8.37431 11.7795 8.37431 12.0221 8.52442 12.1722L10.8278 14.4756C10.9027 14.5504 11.0009 14.5881 11.0992 14.5881C11.1975 14.5881 11.2958 14.5504 11.3706 14.4756C11.5207 14.3255 11.5207 14.0829 11.3706 13.9327L9.06725 11.6294ZM7.53166 13.165C7.38156 13.0149 7.13894 13.0149 6.98883 13.165C6.83873 13.3151 6.83873 13.5577 6.98883 13.7078L9.29221 16.0112C9.36707 16.086 9.46535 16.1236 9.56363 16.1236C9.6619 16.1236 9.76018 16.086 9.83504 16.0112C9.98514 15.8611 9.98514 15.6184 9.83504 15.4683L7.53166 13.165ZM14.7792 12.2847L10.7153 8.22076L5.1158 13.8203L9.17973 17.8842L14.7792 12.2847ZM10.9867 7.40651L15.5935 12.0133C15.7436 12.1634 15.7436 12.406 15.5935 12.5561L9.45114 18.6984C9.37629 18.7733 9.27801 18.8109 9.17973 18.8109C9.08145 18.8109 8.98317 18.7733 8.90831 18.6984L4.30156 14.0917C4.15146 13.9416 4.15146 13.699 4.30156 13.5489L10.4439 7.40651C10.594 7.25641 10.8366 7.25641 10.9867 7.40651ZM19.9192 14.041C19.7357 13.9331 19.5008 13.9949 19.3937 14.1781L14.9935 21.6832C14.6756 22.2334 13.9696 22.4226 13.4368 22.1155L12.5795 21.56C12.4022 21.4444 12.1641 21.4955 12.049 21.6733C11.9334 21.8514 11.9841 22.089 12.1622 22.2042L13.036 22.7704C13.3373 22.9443 13.6671 23.0269 13.9926 23.0269C14.6564 23.0269 15.3025 22.6833 15.6568 22.0694L20.0559 14.5662C20.163 14.3834 20.102 14.1485 19.9192 14.041ZM23 1.91948V8.06182C23 9.2496 22.6222 10.1345 21.7358 11.0205L10.3349 22.4376C9.97209 22.8004 9.48992 22.9996 8.97703 22.9996C8.46415 22.9996 7.98236 22.8004 7.62034 22.4376L0.562408 15.38C0.199626 15.0173 0 14.5351 0 14.0222C0 13.5093 0.199626 13.0275 0.562408 12.6651L10.5337 2.70724C7.92631 2.1145 6.30818 2.07458 5.83446 2.21316C6.03447 2.41778 6.65753 2.85235 8.16125 3.44509C8.35858 3.52302 8.45532 3.74568 8.37777 3.943C8.29984 4.14032 8.0768 4.23591 7.87986 4.15952C4.76723 2.93258 4.94919 2.25232 5.01791 1.99626C5.16033 1.46265 5.92083 1.2849 7.47869 1.42118C8.74746 1.53213 10.3852 1.84501 12.09 2.30146C13.7949 2.7583 15.3689 3.30612 16.5229 3.84472C17.9414 4.50618 18.5099 5.03941 18.3668 5.57341C18.2286 6.0886 17.5103 6.15155 17.2742 6.17229C17.2631 6.17344 17.2515 6.17382 17.2404 6.17382C17.0435 6.17382 16.8761 6.02295 16.8584 5.82332C16.8396 5.61218 16.9959 5.42599 17.2074 5.40756C17.3709 5.39336 17.4796 5.37109 17.5498 5.35113C17.3855 5.17953 16.9698 4.91195 16.3048 4.59332C16.1655 4.82826 16.0899 5.09814 16.0899 5.37455C16.0899 6.22142 16.7786 6.91013 17.6255 6.91013C18.4723 6.91013 19.161 6.22142 19.161 5.37455C19.161 4.52767 18.4723 3.83896 17.6255 3.83896C17.4132 3.83896 17.2416 3.66736 17.2416 3.45507C17.2416 3.24277 17.4132 3.07117 17.6255 3.07117C18.8958 3.07117 19.9288 4.10424 19.9288 5.37455C19.9288 6.64486 18.8958 7.67793 17.6255 7.67793C16.3551 7.67793 15.3221 6.64486 15.3221 5.37455C15.3221 4.9895 15.4234 4.61443 15.6042 4.27968C14.6856 3.89386 13.4533 3.46198 11.8916 3.04315C11.7269 2.999 11.5683 2.95869 11.4098 2.91838L1.10524 13.2083C0.887568 13.4256 0.767793 13.7151 0.767793 14.0222C0.767793 14.3301 0.887568 14.6192 1.10524 14.8368L8.16317 21.8948C8.59813 22.3297 9.35671 22.3297 9.79166 21.8948L21.1926 10.4777C21.9408 9.72985 22.2322 9.05228 22.2322 8.06182V1.91948C22.2322 1.28452 21.7155 0.767793 21.0805 0.767793H14.9382C13.9477 0.767793 13.2701 1.05917 12.5223 1.807C12.3722 1.9571 12.1296 1.9571 11.9795 1.807C11.8294 1.6569 11.8294 1.41427 11.9795 1.26417C12.8655 0.377754 13.7504 0 14.9382 0H21.0805C22.1389 0 23 0.86108 23 1.91948Z" fill="#37584D"/>
</svg>
