<svg width="24" height="24" viewBox="0 0 24 24" >
<path d="M19.376 12.6L24 4.6V3H5.728L6.656 4.6H22.152L18.456 11H10.352L4 0H0V1.6H3.08L9.016 11.88L6.408 16.4V18H8.4V20L8.2 20.016L8 20.04L7.808 20.096L7.624 20.16L7.456 20.24L7.288 20.344L7.136 20.456L6.992 20.584L6.864 20.728L6.744 20.88L6.648 21.048L6.56 21.224L6.496 21.408L6.448 21.6L6.416 21.8L6.408 22L6.416 22.208L6.448 22.408L6.496 22.6L6.56 22.784L6.648 22.952L6.744 23.12L6.864 23.272L6.992 23.416L7.136 23.544L7.288 23.664L7.456 23.76L7.624 23.848L7.808 23.912L8 23.96L8.2 23.992L8.408 24L8.608 23.992L8.808 23.96L9 23.912L9.184 23.848L9.36 23.76L9.52 23.664L9.68 23.544L9.816 23.416L9.944 23.272L10.064 23.12L10.16 22.952L10.248 22.784L10.312 22.6L10.36 22.408L10.392 22.208L10.408 22L10.4 21.992H17.688L17.704 22.192L17.728 22.392L17.776 22.584L17.848 22.768L17.928 22.936L18.032 23.104L18.144 23.256L18.272 23.4L18.416 23.528L18.568 23.648L18.736 23.744L18.912 23.832L19.096 23.896L19.288 23.944L19.488 23.976L19.688 23.984L19.896 23.976L20.096 23.944L20.28 23.896L20.472 23.832L20.64 23.744L20.808 23.648L20.96 23.528L21.104 23.4L21.232 23.256L21.352 23.104L21.448 22.936L21.528 22.768L21.6 22.584L21.648 22.392L21.68 22.192L21.688 21.984L21.68 21.784L21.648 21.584L21.6 21.392L21.528 21.208L21.448 21.032L21.352 20.872L21.232 20.712L21.104 20.576L20.96 20.44L20.808 20.328L20.64 20.224L20.472 20.144L20.28 20.072L20.096 20.024L19.896 20L19.688 19.984L19.488 20L19.288 20.024L19.096 20.072L18.912 20.144L18.736 20.224L18.568 20.328L18.416 20.44L18.272 20.576L18.144 20.712L18.032 20.872L17.928 21.032L17.848 21.208L17.776 21.392L17.728 21.584L17.704 21.784L17.688 21.984H10.4L10.392 21.8L10.36 21.6L10.312 21.408L10.248 21.224L10.16 21.048L10.064 20.88L9.944 20.728L9.816 20.584L9.68 20.456L9.52 20.344L9.36 20.24L9.184 20.16L9 20.096L8.808 20.04L8.608 20.016L8.408 20V18H21.688V16.4H8.256L10.448 12.6H19.376Z"/>
</svg>
