<svg width="22" height="26" viewBox="0 0 22 26">
<path d="M4.62794 7.66122V25M4.62794 7.66122H18.6851M4.62794 7.66122H1.15039M4.62794 25H20.7162C20.974 25 21.183 24.791 21.183 24.5331V21.3755M4.62794 25H1.61726C1.35942 25 1.15039 24.791 1.15039 24.5331V7.66122M21.183 18.6327V8.12809C21.183 7.87025 20.974 7.66122 20.7162 7.66122H18.6851M18.6851 7.66122V1.75022C18.6851 1.40442 18.3218 1.17869 18.0107 1.32961C15.1709 2.70709 12.8084 3.71781 10.4099 4.61475M1.15039 7.66122C4.81429 6.53709 7.63615 5.65201 10.4099 4.61475M1.15039 7.66122L9.67035 1.532C9.97919 1.30982 10.4099 1.53053 10.4099 1.91099V4.61475M9.67284 12.7061H15.5014M9.67284 14.5673H15.5014M16.9447 16.3796H8.4744C8.21656 16.3796 8.00753 16.1706 8.00753 15.9127V11.5567C8.00753 11.2988 8.21656 11.0898 8.4744 11.0898H16.9447C17.2026 11.0898 17.4116 11.2988 17.4116 11.5567V15.9127C17.4116 16.1706 17.2026 16.3796 16.9447 16.3796Z" stroke-linecap="round"/>
</svg>
