<svg width="13" height="13" viewBox="0 0 13 13">
<path d="M2.80346 0.260876C2.17225 0.660481 0.786234 1.63009 0.689033 2.4977C0.239028 6.36535 6.4911 12.6174 10.3575 12.1674C11.2324 12.0702 12.1984 10.6854 12.5956 10.053C12.6509 9.96539 12.6747 9.86158 12.6632 9.75862C12.6516 9.65567 12.6053 9.55973 12.532 9.48658L10.7979 7.75016C10.7554 7.70731 10.7049 7.6733 10.6492 7.65009C10.5935 7.62688 10.5337 7.61493 10.4733 7.61493C10.413 7.61493 10.3532 7.62688 10.2975 7.65009C10.2418 7.6733 10.1912 7.70731 10.1487 7.75016L9.17313 8.73777C9.06393 8.84698 8.97873 8.92858 8.91393 8.97778C8.10032 9.06418 6.5811 8.57937 5.42189 7.41776C4.26267 6.25615 3.77907 4.73933 3.86187 3.92452C3.91947 3.85972 3.99867 3.77572 4.10787 3.66652L5.09908 2.7101C5.14179 2.66752 5.17567 2.61693 5.19879 2.56123C5.22191 2.50553 5.23381 2.44581 5.23381 2.3855C5.23381 2.32519 5.22191 2.26548 5.19879 2.20977C5.17567 2.15407 5.14179 2.10348 5.09908 2.0609L3.37106 0.325677C3.29799 0.251834 3.20189 0.205157 3.09867 0.193373C2.99545 0.181589 2.8913 0.205404 2.80346 0.260876Z" />
</svg>
