<svg width="17" height="18" viewBox="0 0 17 18">
<path d="M2.178 2.90999L1.914 3.18599L1.674 3.45599L1.452 3.73799L1.242 4.03199L1.05 4.33799L0.87 4.64999L0.701999 4.97399L0.552 5.30399L0.42 5.64599L0.3 5.99399L0.198 6.35399L0.114 6.71399L0.048 7.08599L0 7.45799V7.84199V8.22599V8.60999V8.99399L0.048 9.36599L0.114 9.73799L0.198 10.098L0.3 10.458L0.42 10.806L0.552 11.148L0.701999 11.478L0.87 11.802L1.05 12.114L1.242 12.42L1.452 12.714L1.674 12.996L1.914 13.266L2.16 13.53L2.424 13.776L2.694 14.016L2.976 14.238L3.27 14.448L3.576 14.64L3.888 14.82L4.212 14.988L4.542 15.138L4.884 15.27L5.232 15.39L5.592 15.492L5.952 15.576L6.324 15.642L6.696 15.69H7.08H7.464H7.848H8.232L8.604 15.642L8.976 15.576L9.336 15.492L9.696 15.39L10.044 15.27L10.386 15.138L10.716 14.988L11.04 14.82L11.352 14.64L11.658 14.448L11.952 14.238L12.234 14.016L12.324 13.926L15.624 17.226L16.464 16.38L13.164 13.08L13.242 12.99L13.464 12.708L13.674 12.414L13.866 12.108L14.046 11.796L14.214 11.472L14.364 11.142L14.496 10.8L14.616 10.452L14.718 10.092L14.802 9.73199L14.868 9.35999L14.916 8.98799V8.60399V8.21999V7.83599V7.45199L14.868 7.07999L14.814 6.72599L14.73 6.36599L14.628 6.00599L14.508 5.65799L14.364 5.30399L14.214 4.97399L14.046 4.64999L13.866 4.33799L13.674 4.03199L13.476 3.72599L13.254 3.44399L13.014 3.17399L12.768 2.90999L12.504 2.66399L12.234 2.42399L11.964 2.21399L11.67 2.00399L11.364 1.81199L11.052 1.63199L10.728 1.46399L10.386 1.32599L10.044 1.19399L9.696 1.07399L9.336 0.971987L8.976 0.887987L8.604 0.821987L8.232 0.773987H7.848H7.464H7.08H6.696L6.324 0.821987L5.952 0.887987L5.592 0.971987L5.232 1.07399L4.884 1.19399L4.542 1.32599L4.212 1.47599L3.888 1.64399L3.576 1.82399L3.27 2.01599L2.976 2.22599L2.694 2.44799L2.424 2.68799L2.178 2.92199L3.03 3.76799L3.228 3.57599L3.456 3.37799L3.696 3.19199L3.942 3.01799L4.2 2.84999L4.464 2.69999L4.764 2.52599L5.046 2.39999L5.328 2.28599L5.622 2.18399L5.922 2.09999L6.228 2.02799L6.534 1.97399L6.852 1.93199L7.164 1.92599H7.764H8.082L8.4 1.96799L8.706 2.02199L9.012 2.09399L9.312 2.17799L9.606 2.27999L9.888 2.39399L10.17 2.51999L10.44 2.65799L10.704 2.80799L10.962 2.97599L11.208 3.14999L11.448 3.33599L11.676 3.53399L11.892 3.74399L12.102 3.95999L12.3 4.18799L12.486 4.42799L12.66 4.67399L12.828 4.93199L12.978 5.19599L13.164 5.52599L13.29 5.80799L13.404 6.08999L13.506 6.38399L13.59 6.68399L13.662 6.98999L13.716 7.29599L13.758 7.61399L13.764 7.92599V8.52599V8.84399L13.722 9.16199L13.668 9.46799L13.596 9.77399L13.512 10.074L13.41 10.368L13.296 10.65L13.17 10.932L13.032 11.202L12.882 11.466L12.714 11.724L12.54 11.97L12.354 12.21L12.156 12.438L11.946 12.654L11.73 12.864L11.502 13.062L11.262 13.248L11.016 13.422L10.758 13.59L10.494 13.74L10.224 13.878L9.942 14.004L9.66 14.118L9.366 14.22L9.066 14.304L8.76 14.376L8.454 14.43L8.136 14.472L7.764 14.526H7.164H6.846L6.528 14.484L6.222 14.43L5.916 14.358L5.616 14.274L5.322 14.172L5.04 14.058L4.764 13.926L4.494 13.788L4.23 13.638L3.972 13.47L3.726 13.296L3.486 13.11L3.258 12.912L3.042 12.702L2.832 12.486L2.634 12.258L2.448 12.018L2.274 11.772L2.106 11.514L1.956 11.25L1.764 10.956L1.638 10.674L1.524 10.392L1.422 10.098L1.338 9.79799L1.266 9.49199L1.212 9.18599L1.17 8.86799L1.164 8.52599V7.92599V7.60799L1.206 7.28999L1.26 6.98399L1.332 6.67799L1.416 6.37799L1.518 6.08399L1.632 5.80199L1.764 5.52599L1.902 5.25599L2.052 4.99199L2.22 4.73399L2.394 4.48799L2.58 4.24799L2.778 4.01999L3.006 3.78599L2.178 2.90999Z" />
</svg>
