<svg width="14" height="13" viewBox="0 0 14 13">
<path d="M13.7356 0.664965C13.4969 0.474164 13.1218 0.446864 12.7339 0.593565C12.326 0.747765 1.1873 5.24898 0.73388 5.43288C0.651411 5.45988 -0.068838 5.71308 0.00535215 6.27708C0.071582 6.78558 0.650456 6.99618 0.721144 7.02048L3.55279 7.93399C3.74065 8.52319 4.43319 10.697 4.58635 11.1614C4.68188 11.4509 4.83758 11.8313 5.11046 11.9096C5.3499 11.9966 5.58807 11.9171 5.74219 11.8031L7.4734 10.2902L10.2681 12.3437L10.3347 12.3812C10.5244 12.4604 10.7062 12.5 10.8798 12.5C11.0138 12.5 11.1425 12.4763 11.2654 12.4289C11.6841 12.2669 11.8515 11.891 11.8691 11.8484L13.9566 1.62527C14.084 1.07927 13.9069 0.801465 13.7356 0.664965ZM6.0501 8.29939L5.09486 10.6994L4.13963 7.69939L11.4631 2.59937L6.0501 8.29939Z"/>
</svg>
