<svg width="14" height="15" viewBox="0 0 14 15">
<path fill-rule="evenodd" clip-rule="evenodd" d="M11.9 2.5125C10.5875 1.2 8.8375 0.5 7 0.5C3.15 0.5 0 3.65 0 7.5C0 8.725 0.350005 9.95 0.962505 11L0 14.5L3.67501 13.5375C4.72501 14.0625 5.8625 14.4125 7 14.4125C10.85 14.4125 14 11.2625 14 7.4125C14 5.575 13.2125 3.825 11.9 2.5125ZM7 13.275C5.95 13.275 4.90001 13.0125 4.02501 12.4875L3.84999 12.4L1.66249 13.0125L2.27501 10.9125L2.09999 10.65C1.48749 9.6875 1.22499 8.6375 1.22499 7.5875C1.22499 4.4375 3.85 1.8125 7 1.8125C8.575 1.8125 9.97501 2.425 11.1125 3.475C12.25 4.6125 12.775 6.0125 12.775 7.5875C12.775 10.65 10.2375 13.275 7 13.275ZM10.15 8.9C9.97501 8.8125 9.10001 8.375 8.92501 8.375C8.75001 8.2875 8.66249 8.2875 8.57499 8.4625C8.48749 8.6375 8.13751 8.9875 8.05001 9.1625C7.96251 9.25 7.87499 9.25 7.69999 9.25C7.52499 9.1625 7.00001 8.9875 6.30001 8.375C5.77501 7.9375 5.42501 7.325 5.33751 7.15C5.25001 6.975 5.33751 6.8875 5.42501 6.8C5.51251 6.7125 5.6 6.625 5.6875 6.5375C5.775 6.45 5.77501 6.3625 5.86251 6.275C5.95001 6.1875 5.86251 6.1 5.86251 6.0125C5.86251 5.925 5.51251 5.05 5.33751 4.7C5.25001 4.4375 5.07501 4.4375 4.98751 4.4375C4.90001 4.4375 4.81249 4.4375 4.63749 4.4375C4.54999 4.4375 4.37499 4.4375 4.19999 4.6125C4.02499 4.7875 3.58751 5.225 3.58751 6.1C3.58751 6.975 4.19999 7.7625 4.28749 7.9375C4.37499 8.025 5.51249 9.8625 7.26249 10.5625C8.74999 11.175 9.01251 11 9.36251 11C9.71251 11 10.4125 10.5625 10.5 10.2125C10.675 9.775 10.675 9.425 10.5875 9.425C10.5 8.9875 10.325 8.9875 10.15 8.9Z"/>
</svg>
